<?xml version="1.0" encoding="UTF-8" standalone="no"?>
<svg width="181px" height="181px" viewBox="0 0 181 181" version="1.1" xmlns="http://www.w3.org/2000/svg" xmlns:xlink="http://www.w3.org/1999/xlink" xmlns:sketch="http://www.bohemiancoding.com/sketch/ns">
    <!-- Generator: Sketch 3.2.2 (9983) - http://www.bohemiancoding.com/sketch -->
    <title>mad-logo</title>
    <desc>Created with Sketch.</desc>
    <defs></defs>
    <g id="Page-1" stroke="none" stroke-width="1" fill="none" fill-rule="evenodd" sketch:type="MSPage">
        <g id="mad-logo" sketch:type="MSLayerGroup" transform="translate(0.500000, 0.500000)">
            <path d="M90,180 C139.705627,180 180,139.705627 180,90 C180,40.2943725 139.705627,0 90,0 C40.2943725,0 0,40.2943725 0,90 C0,139.705627 40.2943725,180 90,180 Z" id="Oval-1" fill="#006E3B" sketch:type="MSShapeGroup"></path>
            <path d="M28,109.014133 C28,109.014133 35.5843476,69.5105173 35.7405777,69.2038488 C35.8968079,68.8971803 36.5220043,68.9693023 36.6135799,69.2038488 C36.7051555,69.4383953 48.4533372,96.8765429 48.5835427,97.0348181 C48.7137483,97.1930933 48.8815909,97.1590797 48.9551548,97.0348181 C49.0287187,96.9105565 60.9783715,69.5166204 61.423115,69.2038488 C61.8827031,68.8806376 62.2775262,69.0807337 62.343229,69.2987921 C62.4089317,69.5168504 69.1670855,109.014133 69.1670855,109.014133 L63.3658276,109.014133 C63.3658276,109.014133 59.887236,87.0502703 59.8633236,86.9108005 C59.8394112,86.7713307 59.6952603,86.6763905 59.5761569,86.9108005 C59.4570535,87.1452105 49.117411,109.563508 48.9551548,109.822626 C48.7826783,110.098065 48.4477102,110.025015 48.3158359,109.792652 C48.1839615,109.560289 38.1087443,86.9120562 38.0681973,86.8200884 C38.0276503,86.7281207 37.8406927,86.5848049 37.7785482,86.8200884 C37.7164036,87.055372 33.849804,109.014133 33.849804,109.014133 L28,109.014133 Z M103.448028,100.005712 L87.4035445,100.005712 L83.2285807,109.014133 L77.1360462,109.014133 C77.1360462,109.014133 95.2564816,69.8954771 95.352967,69.6867547 C95.4494523,69.4780324 95.8618786,69.2806115 96.0622967,69.6867547 C96.2627149,70.092898 113.569888,109.014133 113.569888,109.014133 L107.380261,109.014133 L103.448028,100.005712 Z M100.836446,94.7447949 C100.984059,94.7414712 101.145899,94.663801 101.014742,94.4183352 C100.720427,93.8675125 95.8415126,82.3411321 95.7451745,82.1330065 C95.6464087,81.9196363 95.392774,81.8870221 95.3042877,82.1330065 C95.2196084,82.3684079 90.0103365,94.1546342 89.9105687,94.4183352 C89.810801,94.6820362 89.9890148,94.7447949 90.1499064,94.7447949 C90.3107981,94.7447949 100.688832,94.7481186 100.836446,94.7447949 Z M122.972939,108.805643 C122.740133,108.795278 122.582589,108.637854 122.582589,108.454628 L122.582589,69.8049561 C122.582589,69.6224128 122.716417,69.450513 122.923897,69.450513 L130.565203,69.450513 C134.392278,69.450513 137.414472,69.8413415 139.631876,70.6230104 C142.013532,71.3876864 144.173415,72.6876162 146.11159,74.5228387 C150.037216,78.2272693 152,83.0956337 152,89.128078 C152,95.1775152 149.955092,100.071368 145.865213,103.809785 C143.812062,105.678993 141.660391,106.978922 139.410137,107.709613 C137.307709,108.440303 134.326578,108.805643 130.466653,108.805643 C130.466653,108.805643 123.205745,108.816008 122.972939,108.805643 Z M128.323173,102.59899 C128.328707,102.978978 128.687973,103.223536 128.975608,103.223536 C129.263244,103.223536 130.910131,103.223536 130.910131,103.223536 C133.48889,103.223536 135.632348,102.943159 137.34057,102.382396 C139.048792,101.787648 140.592739,100.844562 141.972457,99.5531093 C144.797594,96.8852395 146.210141,93.4102639 146.210141,89.128078 C146.210141,84.8119066 144.814019,81.3114421 142.021733,78.6265796 C139.508675,76.2305946 135.804845,75.0326201 130.910131,75.0326201 L129.031105,75.0326201 C128.545369,75.0326201 128.323173,75.1299971 128.323173,75.664333 C128.323173,76.1986688 128.317639,102.219002 128.323173,102.59899 Z" id="MAD" fill="#FFFFFF" sketch:type="MSShapeGroup"></path>
        </g>
    </g>
</svg>