<?xml version="1.0" encoding="UTF-8" standalone="no"?>
<svg width="180px" height="180px" viewBox="0 0 180 180" version="1.1" xmlns="http://www.w3.org/2000/svg" xmlns:xlink="http://www.w3.org/1999/xlink" xmlns:sketch="http://www.bohemiancoding.com/sketch/ns">
    <!-- Generator: Sketch 3.2.2 (9983) - http://www.bohemiancoding.com/sketch -->
    <title>mad-logo</title>
    <desc>Created with Sketch.</desc>
    <defs>
        <linearGradient x1="20.7832031%" y1="7.54492188%" x2="162.083008%" y2="197.613281%" id="linearGradient-1">
            <stop stop-color="#000000" stop-opacity="0" offset="0%"></stop>
            <stop stop-color="#000000" offset="100%"></stop>
        </linearGradient>
    </defs>
    <g id="Page-1" stroke="none" stroke-width="1" fill="none" fill-rule="evenodd" sketch:type="MSPage">
        <g id="mad-logo" sketch:type="MSLayerGroup">
            <path d="M90,180 C139.705627,180 180,139.705627 180,90 C180,40.2943725 139.705627,0 90,0 C40.2943725,0 0,40.2943725 0,90 C0,139.705627 40.2943725,180 90,180 Z" id="Oval-1" fill="#006E3B" sketch:type="MSShapeGroup"></path>
            <path d="M90,180 C139.705627,180 180,139.705627 180,90 C180,40.2943725 139.705627,0 90,0 C40.2943725,0 0,40.2943725 0,90 C0,139.705627 40.2943725,180 90,180 Z" id="Oval-1" fill="url(#linearGradient-1)" sketch:type="MSShapeGroup"></path>
            <path d="M27.5033245,109.35 C27.5033245,109.35 35.05545,69.6038818 35.2110164,69.2953308 C35.3665828,68.9867798 35.9891231,69.0593445 36.0803096,69.2953308 C36.1714962,69.5313171 47.8697658,97.1379006 47.9994182,97.2971475 C48.1290706,97.4563943 48.2962001,97.4221719 48.3694515,97.2971475 C48.4427028,97.172123 60.3415877,69.6100224 60.7844417,69.2953308 C61.2420772,68.9701355 61.635223,69.17146 61.7006465,69.3908569 C61.7660701,69.6102539 68.495512,109.35 68.495512,109.35 L62.7189006,109.35 C62.7189006,109.35 59.2550879,87.251307 59.231277,87.1109811 C59.2074662,86.9706551 59.0639278,86.8751321 58.9453304,87.1109811 C58.826733,87.3468301 48.5310184,109.902748 48.3694515,110.163456 C48.1977077,110.440586 47.8641628,110.367088 47.7328487,110.133299 C47.6015346,109.89951 37.5691219,87.1122445 37.5287471,87.0197121 C37.4883724,86.9271798 37.302209,86.7829842 37.2403286,87.0197121 C37.1784481,87.2564401 33.3282756,109.35 33.3282756,109.35 L27.5033245,109.35 Z M102.630812,100.286279 L86.6544936,100.286279 L82.497267,109.35 L76.4306166,109.35 C76.4306166,109.35 94.4740675,69.9912048 94.570143,69.7812012 C94.6662184,69.5711975 95.0768925,69.3725647 95.2764592,69.7812012 C95.4760258,70.1898377 112.709669,109.35 112.709669,109.35 L106.546339,109.35 L102.630812,100.286279 Z M100.030325,94.9930664 C100.177312,94.9897223 100.338464,94.9115753 100.207864,94.6646027 C99.9147992,94.1103986 95.056613,82.5132606 94.9606842,82.3038574 C94.862338,82.0891773 94.6097809,82.0563629 94.5216705,82.3038574 C94.437351,82.5407038 89.2502106,94.3992828 89.1508667,94.6646027 C89.0515228,94.9299225 89.2289795,94.9930664 89.3891876,94.9930664 C89.5493957,94.9930664 99.8833387,94.9964105 100.030325,94.9930664 Z M122.072772,109.14023 C121.840955,109.129802 121.684081,108.971412 121.684081,108.787061 L121.684081,69.9001282 C121.684081,69.7164642 121.81734,69.5435092 122.023938,69.5435092 L129.632781,69.5435092 C133.443596,69.5435092 136.45295,69.9367369 138.660933,70.7232043 C141.032471,71.4925745 143.183178,72.8004842 145.113119,74.6469726 C149.022067,78.3741438 150.976512,83.2723939 150.976512,89.3418699 C150.976512,95.428443 148.940291,100.352338 144.867789,104.113704 C142.82336,105.994387 140.68083,107.302296 138.440136,108.037472 C136.346641,108.772648 133.378175,109.140231 129.534648,109.140231 C129.534648,109.140231 122.304589,109.150659 122.072772,109.14023 Z M127.400275,102.895477 C127.405785,103.277797 127.763525,103.523857 128.049939,103.523857 C128.336353,103.523857 129.976243,103.523856 129.976243,103.523856 C132.544046,103.523856 134.678397,103.241758 136.379362,102.677553 C138.080327,102.079154 139.617715,101.130279 140.991571,99.8308978 C143.804705,97.1466507 145.211251,93.650343 145.211251,89.3418699 C145.211251,84.9992026 143.82106,81.4772496 141.040637,78.7759054 C138.538256,76.3652121 134.850161,75.1598835 129.976243,75.1598835 L128.1052,75.1598835 C127.621527,75.1598835 127.400275,75.2578583 127.400275,75.7954743 C127.400275,76.3330903 127.394765,102.513156 127.400275,102.895477 Z" id="MAD" fill="#FFFFFF" sketch:type="MSShapeGroup"></path>
        </g>
    </g>
</svg>