<?xml version="1.0" encoding="UTF-8" standalone="no"?>
<svg width="181px" height="181px" viewBox="0 0 181 181" version="1.1" xmlns="http://www.w3.org/2000/svg" xmlns:xlink="http://www.w3.org/1999/xlink" xmlns:sketch="http://www.bohemiancoding.com/sketch/ns">
    <!-- Generator: Sketch 3.2.2 (9983) - http://www.bohemiancoding.com/sketch -->
    <title>mad-logo</title>
    <desc>Created with Sketch.</desc>
    <defs></defs>
    <g id="Page-1" stroke="none" stroke-width="1" fill="none" fill-rule="evenodd" sketch:type="MSPage">
        <g id="mad-logo" sketch:type="MSLayerGroup" transform="translate(0.500000, 0.500000)">
            <path d="M90,180 C139.705627,180 180,139.705627 180,90 C180,40.2943725 139.705627,0 90,0 C40.2943725,0 0,40.2943725 0,90 C0,139.705627 40.2943725,180 90,180 Z" id="Oval-1" fill="#006E3B" sketch:type="MSShapeGroup"></path>
            <path d="M22.565,107.689 C22.451,108.487 22.907,109 23.648,109 L28.778,109 C29.291,109 29.747,108.544 29.804,108.145 L33.11,86.542 L33.281,86.542 L43.37,108.943 C43.541,109.285 43.826,109.57 44.339,109.57 L45.365,109.57 C45.878,109.57 46.22,109.285 46.334,108.943 L56.309,86.542 L56.48,86.542 L59.843,108.145 C59.957,108.544 60.413,109 60.926,109 L66.113,109 C66.854,109 67.31,108.487 67.139,107.689 L60.413,69.385 C60.356,68.929 60.014,68.53 59.387,68.53 L58.475,68.53 C57.962,68.53 57.677,68.758 57.506,69.1 L44.966,96.004 L44.795,96.004 L32.255,69.1 C32.084,68.758 31.742,68.53 31.286,68.53 L30.374,68.53 C29.747,68.53 29.405,68.929 29.348,69.385 L22.565,107.689 Z M75.5299978,109 L80.4889978,109 C81.4009978,109 81.9139978,108.43 82.1419978,107.86 L84.9349978,101.704 L101.977998,101.704 L104.770998,107.86 C105.169998,108.658 105.568998,109 106.423998,109 L111.382998,109 C112.237998,109 112.693998,108.259 112.351998,107.518 L94.7959978,69.157 C94.6249978,68.815 94.3969978,68.53 93.8269978,68.53 L93.2569978,68.53 C92.7439978,68.53 92.4589978,68.815 92.2879978,69.157 L74.5609978,107.518 C74.2189978,108.259 74.6749978,109 75.5299978,109 L75.5299978,109 Z M87.7279978,95.377 L93.3139978,82.837 L93.4849978,82.837 L99.1849978,95.377 L87.7279978,95.377 Z M122.338996,107.917 C122.338996,108.487 122.794996,109 123.364996,109 L136.873996,109 C147.874996,109 156.880996,100.051 156.880996,88.993 C156.880996,78.049 147.874996,69.1 136.873996,69.1 L123.364996,69.1 C122.794996,69.1 122.338996,69.613 122.338996,70.183 L122.338996,107.917 Z M129.691996,102.046 L129.691996,75.997 L136.189996,75.997 C143.599996,75.997 149.014996,81.583 149.014996,88.993 C149.014996,96.46 143.599996,102.046 136.189996,102.046 L129.691996,102.046 Z" id="MAD" fill="#FFFFFF" sketch:type="MSShapeGroup"></path>
        </g>
    </g>
</svg>