<?xml version="1.0" encoding="UTF-8" standalone="no"?>
<svg width="93px" height="93px" viewBox="0 0 93 93" version="1.1" xmlns="http://www.w3.org/2000/svg" xmlns:xlink="http://www.w3.org/1999/xlink" xmlns:sketch="http://www.bohemiancoding.com/sketch/ns">
    <!-- Generator: Sketch 3.2.2 (9983) - http://www.bohemiancoding.com/sketch -->
    <title>mad-logo</title>
    <desc>Created with Sketch.</desc>
    <defs>
        <linearGradient x1="22.1870855%" y1="7.14697553%" x2="162.314821%" y2="219.656267%" id="linearGradient-1">
            <stop stop-color="#007934" offset="0%"></stop>
            <stop stop-color="#000000" offset="100%"></stop>
        </linearGradient>
    </defs>
    <g id="Page-1" stroke="none" stroke-width="1" fill="none" fill-rule="evenodd" sketch:type="MSPage">
        <g id="mad-logo" sketch:type="MSLayerGroup">
            <g id="Group" sketch:type="MSShapeGroup">
                <path d="M92.275,46.5 C92.275,21.1776596 71.8223404,0.725 46.5,0.725 C21.1776596,0.725 0.725,21.1776596 0.725,46.5 C0.725,71.8223404 21.1776596,92.275 46.5,92.275 C71.8223404,92.275 92.275,71.8223404 92.275,46.5 L92.275,46.5 Z" id="Shape" fill="url(#linearGradient-1)"></path>
                <g transform="translate(15.000000, 36.000000)" id="Shape" fill="#FFFFFF">
                    <path d="M4.1,1.4 C4.1,1.2 4.3,1 4.6,1 L5,1 C5.2,1 5.4,1.1 5.4,1.3 L11,13.3 L11.1,13.3 L16.7,1.3 C16.8,1.1 16.9,1 17.1,1 L17.5,1 C17.8,1 17.9,1.2 18,1.4 L21,18.5 C21.1,18.9 20.9,19.1 20.5,19.1 L18.2,19.1 C18,19.1 17.8,18.9 17.7,18.7 L16.2,9 L16.1,9 L11.6,19 C11.5,19.2 11.4,19.3 11.2,19.3 L10.7,19.3 C10.5,19.3 10.3,19.2 10.3,19 L5.8,9 L5.7,9 L4.2,18.7 C4.2,18.9 4,19.1 3.7,19.1 L1.4,19.1 C1.1,19.1 0.9,18.9 0.9,18.5 L4.1,1.4 L4.1,1.4 Z"></path>
                    <path d="M24.7,18.4 L32.6,1.2 C32.7,1 32.8,0.9 33,0.9 L33.3,0.9 C33.6,0.9 33.7,1 33.7,1.2 L41.6,18.4 C41.7,18.7 41.5,19.1 41.2,19.1 L39,19.1 C38.6,19.1 38.4,18.9 38.3,18.6 L37,15.8 L29.4,15.8 L28.2,18.6 C28.1,18.9 27.9,19.1 27.5,19.1 L25.3,19.1 C24.8,19.1 24.6,18.8 24.7,18.4 L24.7,18.4 Z M35.8,13 L33.2,7.4 L33.1,7.4 L30.6,13 L35.8,13 L35.8,13 Z"></path>
                    <path d="M46.5,1.7 C46.5,1.4 46.7,1.2 47,1.2 L53,1.2 C57.9,1.2 62,5.2 62,10.1 C62,15 58,19.1 53,19.1 L47,19.1 C46.7,19.1 46.5,18.9 46.5,18.6 L46.5,1.7 L46.5,1.7 Z M52.7,16 C56,16 58.4,13.5 58.4,10.2 C58.4,6.9 56,4.4 52.7,4.4 L49.8,4.4 L49.8,16 L52.7,16 L52.7,16 Z"></path>
                </g>
            </g>
        </g>
    </g>
</svg>