<?xml version="1.0" encoding="UTF-8" standalone="no"?>
<svg width="490px" height="47px" viewBox="0 0 490 47" version="1.1" xmlns="http://www.w3.org/2000/svg" xmlns:xlink="http://www.w3.org/1999/xlink" xmlns:sketch="http://www.bohemiancoding.com/sketch/ns">
    <!-- Generator: Sketch 3.2.2 (9983) - http://www.bohemiancoding.com/sketch -->
    <title>For a better meal_type</title>
    <desc>Created with Sketch.</desc>
    <defs></defs>
    <g id="Page-1" stroke="none" stroke-width="1" fill="none" fill-rule="evenodd" sketch:type="MSPage">
        <g id="For-a-better-meal_type" sketch:type="MSLayerGroup" transform="translate(0.000000, -1.000000)" fill="#006E3B">
            <path d="M247.7152,5.4374 C249.4102,6.1524 252.2832,6.5774 251.2212,9.0804 C250.5762,9.5024 250.1822,9.0554 249.6022,8.9684 C245.7702,8.3994 241.0382,9.1704 237.1192,9.1914 C236.6062,9.1944 235.7352,9.1134 235.0232,9.1914 C234.6892,9.3194 234.7312,9.8884 234.7372,10.4134 C232.4802,20.8494 231.2892,31.9594 229.1152,42.5374 C227.6912,43.1454 226.7282,40.7844 226.0662,39.4244 C225.5692,38.4044 225.0592,37.4144 224.8272,36.7564 C225.5722,35.1354 225.8032,33.8764 225.8762,32.2004 C226.2792,32.4714 226.0442,31.1734 226.4472,31.0884 C226.3152,31.0204 226.4332,30.6604 226.2572,30.6434 C226.9632,29.5644 226.8122,27.1424 227.4952,26.4194 C227.4202,25.7684 227.5282,24.8674 227.6862,24.0854 C227.7852,23.5924 228.0742,22.1684 228.2582,22.6404 C228.0982,21.7964 228.4302,20.8404 228.5432,19.9734 C228.7522,20.4464 228.5782,18.6614 229.1152,18.3054 C229.0822,18.1314 228.9472,18.4034 228.9252,18.1944 C228.9092,17.7554 229.0712,18.2304 229.2112,17.9724 C229.7162,14.7114 230.6282,13.0074 231.1162,9.3024 C225.1292,9.0504 219.2772,9.2084 213.7742,8.8574 L213.5122,7.1294 C213.4352,6.0414 214.6142,6.5014 215.5852,6.4124 C219.8322,6.0244 224.6432,4.9744 229.5912,5.7464 C230.2722,5.3084 229.7972,4.0654 230.1642,3.4114 C231.7512,2.9914 234.0352,3.8884 234.6422,5.6344 C238.6502,5.2194 242.4452,5.3944 246.3622,5.0784" id="Fill-1" sketch:type="MSShapeGroup"></path>
            <path d="M243.7728,7.1294 C243.6958,6.0414 244.4508,5.1514 245.4258,5.1454 C249.8258,5.1174 255.2198,5.7184 259.8528,5.7464 C260.5328,5.3084 260.0578,4.0654 260.4248,3.4114 C262.0118,2.9914 264.2968,3.8884 264.9028,5.6344 C268.9118,5.2194 272.7058,5.3944 276.6228,5.0784 C276.8058,4.7854 276.2938,4.3554 276.3368,3.8564 C277.1618,3.7834 277.4518,4.3344 277.8618,4.7454 C279.5568,5.4604 282.5448,6.5774 281.4828,9.0804 C280.8378,9.5024 280.4428,9.0554 279.8628,8.9684 C276.0308,8.3994 271.2998,9.1704 267.3798,9.1914 C266.8668,9.1944 265.9958,9.1134 265.2838,9.1914 C264.9498,9.3194 264.9918,9.8884 264.9978,10.4134 C262.7418,20.8494 261.5508,31.9594 259.3758,42.5374 C257.9518,43.1454 256.9888,40.7844 256.3278,39.4244 C255.8298,38.4044 255.3198,37.4144 255.0888,36.7564 C255.8328,35.1354 256.0638,33.8764 256.1368,32.2004 C256.5398,32.4714 256.3048,31.1734 256.7078,31.0884 C256.5758,31.0204 256.6938,30.6604 256.5178,30.6434 C257.2238,29.5644 257.0728,27.1424 257.7558,26.4194 C257.6808,25.7684 257.7888,24.8674 257.9468,24.0854 C258.0458,23.5924 258.3348,22.1684 258.5188,22.6404 C258.3588,21.7964 258.6918,20.8404 258.8048,19.9734 C259.0128,20.4464 258.8388,18.6614 259.3758,18.3054 C259.3428,18.1314 259.2078,18.4034 259.1858,18.1944 C259.1698,17.7554 259.3318,18.2304 259.4718,17.9724 C259.9768,14.7114 260.8888,13.0074 261.3768,9.3024 C255.3898,9.0504 249.5378,9.2084 244.0358,8.8574 L243.7728,7.1294 Z" id="Fill-3" sketch:type="MSShapeGroup"></path>
            <path d="M126.0443,27.3941 C128.6013,30.0191 129.3423,33.8121 131.3393,36.2571 C131.1123,32.9091 131.0913,30.0221 130.6893,26.7541 C129.2583,26.6531 127.0983,26.8271 126.0443,27.3941 L126.0443,27.3941 Z M127.9953,5.9531 C127.2013,6.1721 126.6923,7.2951 126.1153,8.2751 C125.1293,9.9541 124.5253,11.3721 123.8763,12.9211 C123.0923,14.7931 121.7653,17.2401 120.8123,19.2921 C120.1253,20.7691 119.6883,22.2241 118.9533,23.5231 C120.5133,23.1871 121.8793,24.0221 123.4173,24.0451 C125.7763,24.0791 128.6623,23.0671 130.6693,23.1881 C130.1543,17.4591 129.8073,11.0551 127.9953,5.9531 L127.9953,5.9531 Z M132.9033,8.4761 C133.8273,13.2051 134.8993,17.7511 135.2403,23.3181 C136.7943,24.0921 139.4133,24.3511 138.8603,26.9681 C138.0153,27.4781 136.7483,27.3961 135.6923,27.1031 C135.9203,32.1171 136.1693,37.9841 136.6253,43.3361 C136.7183,44.4271 137.1373,45.1881 136.2863,45.9131 C132.9013,45.7221 132.1273,42.5471 130.0603,40.8231 C129.3483,40.2291 128.6253,39.8991 127.9923,39.2111 C127.8503,37.3671 126.0123,35.2241 126.4213,33.6071 C125.0963,31.7691 124.6283,29.2971 123.1833,27.8871 C120.8133,28.1691 119.0643,28.9371 116.5113,29.0771 C115.5483,30.7271 115.0793,32.7231 114.4933,34.7241 C113.9193,36.6821 113.2183,38.6741 112.8973,40.4631 C112.0733,40.9481 112.5883,42.3351 111.8303,42.5911 C111.3063,44.1541 111.6473,45.6721 110.3713,46.6611 C108.6753,46.7461 107.0513,47.2201 106.7393,46.1991 C106.5753,45.6591 107.1003,45.5591 107.3313,45.0021 C107.7303,44.0411 107.7823,42.5701 107.8923,41.7701 C108.0653,41.6291 108.1333,41.4061 108.4093,41.3451 C108.2283,40.1801 108.6673,38.7831 109.3933,38.2061 C109.1653,38.0381 109.2183,37.5681 109.1723,37.2041 C109.8663,37.3911 109.5033,36.7541 109.9633,36.7571 C108.8413,36.0201 110.4723,34.9081 110.0073,33.9491 C110.2893,33.7441 110.7013,33.2481 111.0733,33.4791 C111.1793,33.0871 110.7483,33.2801 110.5033,33.2711 C111.1433,31.7541 110.9403,30.7991 111.7183,29.6021 C110.7843,28.8541 109.9603,26.9081 110.1053,25.1491 C112.5053,25.1721 114.3223,24.6461 114.2983,22.3801 C114.5173,22.4171 114.4483,22.7681 114.8683,22.5881 C115.3233,22.2591 114.5063,22.1661 114.6573,21.7131 C115.4993,21.7701 114.5893,21.1951 115.0053,20.9201 C115.6873,20.3931 115.4173,19.7681 115.8083,18.9411 C116.0173,18.9901 116.1703,19.1011 116.3793,19.1491 C116.4203,18.8741 116.1623,18.9251 115.9463,18.9301 C117.7233,14.6741 119.5933,10.2651 122.1373,6.9491 C122.1763,5.7561 123.4673,5.5401 123.2883,4.1771 C124.0843,3.6531 124.2673,2.6521 125.2003,2.2351 C126.7333,2.6571 128.3833,2.2951 129.6863,3.0091 C130.9613,3.7091 131.2693,5.2701 132.0493,6.5081 L132.9033,8.4761 Z" id="Fill-5" sketch:type="MSShapeGroup"></path>
            <path d="M36.4584,25.9287 C36.4464,26.1377 36.4234,26.2987 36.4304,26.4537 C36.5144,28.2147 36.8754,29.8717 37.4814,31.4487 C37.8014,32.2817 38.2404,33.0247 38.8264,33.6487 C40.1334,35.0387 41.4794,35.4547 43.8574,34.3827 C44.8374,33.9407 45.7604,33.2697 46.6544,32.6187 C47.8124,31.7747 48.7044,30.6447 49.6054,29.5587 C50.1924,28.8517 50.6114,28.0207 51.1014,27.2427 C51.2164,27.0597 51.3534,26.8707 51.4094,26.6757 C51.6984,25.6777 52.1804,24.6777 51.9354,23.6767 C51.8994,23.5297 51.8964,23.3607 51.9174,23.1997 C52.0544,22.1997 51.7214,21.4217 51.1374,20.7487 C50.3464,19.8357 49.4844,19.0237 48.0944,18.7737 L46.7084,18.2747 C46.1764,17.7707 45.3574,17.8107 44.6414,17.6837 C42.9794,17.3897 41.3264,17.0187 39.4744,17.2877 C39.1934,17.6587 38.9024,17.9937 38.6734,18.3597 C38.3244,18.9157 38.0274,19.4977 37.6944,20.0617 C37.0384,21.1757 36.7344,22.3537 36.4644,23.5337 C36.3834,23.8897 36.2424,24.8817 36.4494,25.1287 L36.4584,25.9287 Z M19.2024,26.6357 C17.7934,26.7727 16.3894,27.0807 14.9864,27.4447 C14.5754,27.5517 14.1614,27.6557 13.7544,27.7907 C13.5014,27.8737 13.2794,28.0427 13.2244,28.3237 C13.1134,28.8897 12.9934,29.4557 12.9194,30.0207 C12.7094,31.6077 12.5114,33.1937 12.3284,34.7797 C12.1634,36.2027 11.9694,37.6317 11.8944,39.0457 C11.8444,39.9697 11.9944,40.8687 12.0334,41.7827 C12.0814,42.9347 12.1074,44.0917 12.1434,45.2457 C12.1554,45.6447 11.9204,45.9547 11.6144,46.2647 C11.2064,46.4297 10.8194,46.4117 10.4424,46.2737 C10.1934,46.1827 9.9164,46.1477 9.6664,46.0607 C9.4134,45.9727 9.1394,45.8957 8.9414,45.7377 C8.1284,45.0847 7.3414,44.4037 6.5454,43.7327 C6.4324,43.6367 6.3224,43.5357 6.1794,43.4087 C6.8794,42.6107 7.0544,41.7827 7.1134,40.9207 C7.2234,39.3107 7.3684,37.6967 7.4924,36.0847 C7.5104,35.8447 7.4884,35.4547 7.4714,35.2147 C7.4354,34.7077 7.4934,34.2037 7.6514,33.6737 C7.7944,33.1937 7.8044,32.6977 7.8874,32.2087 C8.0124,31.4777 8.1364,30.7457 8.2864,30.0137 C8.4114,29.4007 8.3994,28.8867 7.7834,28.6327 C7.5404,28.5327 7.3464,28.3407 7.1404,28.1787 C6.5514,27.7167 6.2924,27.0577 6.2194,26.2857 C6.1904,25.9787 6.2974,25.7137 6.5694,25.5117 C6.8944,25.2697 7.2264,25.0537 7.6114,25.2287 C7.9514,25.3837 8.2304,25.6747 8.7144,25.5607 C9.0774,25.2677 9.2574,24.9097 9.2234,24.4687 C9.1864,23.9917 9.3344,23.5207 9.4724,23.0297 C9.7674,21.9847 9.9324,20.9267 10.1474,19.8737 C10.6454,17.4387 11.1474,15.0037 11.6324,12.5687 C11.7364,12.0437 11.7734,11.5177 11.8474,10.9487 C11.5904,10.9327 11.3954,10.8747 11.2074,10.9177 C10.6714,11.0427 10.1374,11.2047 9.6034,11.3587 C8.0844,11.7947 6.5684,12.2657 5.0454,12.6557 C4.3944,12.8217 3.7004,12.9247 3.0754,12.8687 C2.0674,12.7787 1.1194,12.5047 0.8494,11.4087 C0.8154,11.2687 0.8544,11.0997 0.8604,10.9317 C1.4814,10.4487 2.1484,10.2837 2.7984,10.2767 C3.5104,10.2677 4.1964,10.0907 4.8964,9.8857 C7.0724,9.2477 9.2494,8.6257 11.4264,7.9967 C11.6664,7.9277 11.9074,7.8597 12.1994,7.7767 C12.2784,7.4197 12.3984,7.0957 12.4104,6.7857 C12.4424,5.9387 12.4314,5.0967 12.4354,4.2537 C12.4364,4.0067 12.4034,3.7797 12.1374,3.6927 C12.0704,3.6707 12.0204,3.6007 11.9764,3.5427 C11.4764,2.8717 11.6144,2.2787 12.4614,1.8357 C12.9534,1.5777 13.4014,1.2327 13.9764,1.1047 C15.5364,0.7577 17.3474,2.0437 17.3124,3.9077 C17.3004,4.5517 17.2564,5.2007 17.2444,5.8437 C17.2384,6.1587 17.2724,6.4667 17.2844,6.7027 C17.6634,6.9907 18.0534,6.8677 18.4154,6.8597 C19.3134,6.8417 20.2164,6.8007 21.1064,6.8267 C23.8624,6.9057 26.6144,7.0077 29.3654,7.1097 C30.0764,7.1367 30.7254,7.0077 31.3934,6.5167 C32.3714,5.7997 33.4264,5.8747 34.4164,5.9907 C35.5224,6.1207 36.5944,6.3657 37.6734,6.5817 C37.8994,6.6267 38.1034,6.7457 38.2954,6.8607 C38.7654,7.1407 38.7424,7.6587 38.2244,8.0437 C37.9804,8.2257 37.6934,8.3847 37.4144,8.4657 C36.4724,8.7407 35.5384,9.0677 34.5724,9.1407 C33.4214,9.2287 32.2494,9.4847 31.1064,9.5237 C28.1754,9.6227 25.2914,9.3857 22.3574,9.5407 C21.6674,9.5777 20.9804,9.5197 20.2974,9.4177 C19.2624,9.2647 18.2254,9.5477 17.1554,9.7097 C17.0664,9.9207 16.9754,10.0717 16.9424,10.2247 C16.2924,13.1957 15.6494,16.1677 15.0034,19.1387 C14.7114,20.4807 14.4074,21.8217 14.1254,23.1647 C14.0504,23.5197 14.0394,23.8767 13.9964,24.2587 C14.5434,24.4587 15.0934,24.3577 15.6134,24.2787 C17.6144,23.9727 19.5664,24.0107 21.5074,24.0787 C22.9204,24.1277 24.3184,24.2447 25.7184,24.3537 C26.6404,24.4247 26.5844,25.8977 25.3484,26.2097 L19.2024,26.6357 Z M31.9414,22.6217 C32.0984,21.5437 32.2004,20.4677 32.4464,19.3877 C32.5194,19.0657 32.5934,18.7407 32.7004,18.4227 C32.9544,17.6627 33.2274,16.9067 33.4804,16.1867 C33.3134,16.0637 33.2014,15.9797 33.0504,15.8687 C33.6684,15.2757 34.1814,14.9287 34.9124,14.7607 C36.6434,14.3637 38.3834,14.0547 40.1044,13.4997 C40.6324,13.3287 41.1764,13.2387 41.7134,13.1427 C42.9134,12.9267 44.1134,12.7297 45.3134,12.5277 C46.4954,12.3277 47.5914,12.5417 48.6924,12.6917 C49.3944,12.7877 50.0544,13.0307 50.7194,13.2387 C51.4384,13.4627 52.0284,13.8867 52.4454,14.4647 C52.7044,14.8247 53.0344,15.0167 53.4374,15.1587 C54.1284,15.4027 54.8344,15.6207 55.5044,15.9017 C56.8254,16.4557 57.7374,17.4187 58.2094,18.7647 C58.7154,20.2087 58.6094,21.7877 58.3564,23.3917 C58.0394,25.3937 57.1954,27.2547 55.9454,29.0107 C54.8684,30.5247 53.7134,31.9767 52.3214,33.2497 C50.8924,34.5557 49.3384,35.6417 47.6064,36.4267 C45.5894,37.3417 43.5864,37.5847 41.6264,37.2297 C39.9794,36.9317 38.4684,36.3687 37.1884,35.4017 C36.7404,35.0627 36.2324,34.7917 35.8034,34.4327 C34.3634,33.2277 33.4824,31.6227 32.9354,29.7917 C32.6964,28.9897 32.4664,28.1837 32.2324,27.3807 C32.1794,27.1997 32.1454,27.0077 32.0684,26.8407 C31.9744,26.6387 31.8504,23.2457 31.9414,22.6217 L31.9414,22.6217 Z" id="Fill-7" sketch:type="MSShapeGroup"></path>
            <path d="M80.8149,5.9085 C80.5709,5.8955 80.3729,5.8615 80.1759,5.8795 C79.2349,5.9675 78.3359,6.2325 77.4499,6.5845 C75.2799,7.4475 73.5229,8.9095 71.6459,10.1975 C71.5819,10.2415 71.5479,10.3235 71.4909,10.3795 C70.3459,11.4825 69.4519,12.7435 68.6979,14.0855 C68.5009,14.4355 68.2929,14.7415 67.9599,15.0035 C67.5069,15.3605 67.2459,15.8315 67.1579,16.4305 C67.4379,16.5155 67.6899,16.6095 67.9529,16.6705 C68.8049,16.8685 69.7149,16.9535 70.5019,17.2735 C71.2869,17.5935 72.0899,17.7115 72.9279,17.8045 C74.2729,17.9535 75.6009,17.7435 76.9209,17.4415 C77.2629,17.3635 77.6029,17.1635 77.8929,16.9555 C78.4509,16.5525 78.9839,16.1165 79.5019,15.6675 C79.7109,15.4865 79.9159,15.2535 80.0089,15.0115 C80.4989,13.7485 80.9549,12.4755 81.4129,11.2035 C81.4619,11.0665 81.4569,10.9105 81.4529,10.7655 C81.4309,10.0525 81.4009,9.3395 81.3749,8.6275 C81.3419,7.7235 81.3029,6.8215 80.8149,5.9085 M72.2369,24.0695 C72.4689,24.3075 72.6699,24.5805 72.9399,24.7755 C74.0269,25.5635 75.0489,26.4135 76.0269,27.3155 C77.9569,29.0965 79.7869,30.9555 81.4539,32.9605 C82.9709,34.7865 84.5679,36.5535 86.1379,38.3415 C86.4109,38.6525 86.6889,38.9715 87.0209,39.2255 C88.1029,40.0545 88.8789,41.1045 89.5559,42.2225 C89.4159,42.9175 89.1189,43.4785 88.3319,43.6295 C86.7369,43.3595 85.7639,42.3685 84.8309,41.3155 C83.5529,39.8745 82.2429,38.4595 80.9619,37.0205 C79.8069,35.7235 78.6859,34.3995 77.5229,33.1085 C76.8159,32.3245 76.1049,31.5375 75.3149,30.8285 C73.4189,29.1255 71.4629,27.4805 69.5569,25.7865 C68.6759,25.0025 67.8249,24.1865 67.0209,23.3345 C66.4789,22.7605 66.0409,22.0985 65.5619,21.4725 C65.4279,21.2965 65.3129,21.1085 65.1599,20.8815 C64.5839,21.3325 64.3329,21.7575 64.2339,22.2525 C64.0909,22.9655 63.9659,23.6805 63.8399,24.3955 C63.6959,25.2195 63.5689,26.0445 63.3999,26.8675 C63.2059,27.8205 63.3009,28.8165 63.3479,29.7855 C63.3819,30.4965 63.5439,31.1935 63.6449,31.8975 C63.6709,32.0825 63.6969,32.2695 63.6969,32.4575 C63.6979,34.6145 64.1309,36.7065 64.3969,38.8235 C64.4989,39.6385 64.7249,40.4375 65.1519,41.1565 C65.5179,41.7715 65.5919,42.4125 65.2429,43.1305 C63.9669,43.7585 62.8069,43.5675 61.7699,42.8025 C61.2739,42.4375 60.7829,42.0795 60.2089,41.8155 C59.9279,41.6855 59.6669,41.5105 59.4249,41.3245 C58.8379,40.8725 58.8079,40.6565 59.1079,39.8805 C59.1899,39.6685 59.2319,39.4375 59.2439,39.2155 C59.2859,38.4565 59.2139,37.7125 59.0249,36.9825 C58.8379,36.2595 58.7199,35.5285 58.8339,34.7585 C58.8829,34.4265 58.8159,34.0855 58.7889,33.7505 C58.6949,32.5965 58.5859,31.4445 58.8559,30.2755 C58.8819,30.1675 58.8869,30.0405 58.8509,29.9415 C58.6789,29.4685 58.8649,28.9695 58.8179,28.5035 C58.7659,27.9885 58.9509,27.5365 59.0469,27.0565 C59.1359,26.6145 59.2169,26.1575 59.1909,25.7195 C59.1539,25.1165 59.3549,24.6065 59.7349,24.1985 C59.7929,23.9095 59.4129,23.8805 59.5619,23.5545 C59.7959,23.0395 60.2179,22.6025 60.3389,22.0485 C60.3549,21.9765 60.3509,21.9015 60.3569,21.8145 C60.2579,21.6835 60.1499,21.5395 60.0419,21.3965 C60.4259,21.0945 60.9079,20.8495 60.5299,20.2985 C60.4909,20.2415 60.7119,20.0535 60.7339,19.9205 C60.8019,19.5065 60.7709,19.1045 60.4559,18.8125 C60.7249,18.4735 60.9459,18.1935 61.2179,17.8505 C61.0419,17.5465 60.8619,17.2355 60.6579,16.8835 C61.1959,16.7125 61.4689,16.2875 61.7509,15.8735 C61.8869,15.6745 61.9869,15.4665 61.8769,15.2305 C61.7269,14.9085 61.9269,14.6185 62.1219,14.3835 C62.4559,13.9795 62.5939,13.5205 62.8039,13.0745 C63.2649,12.0955 63.8029,11.1445 64.7729,10.4665 C64.9319,10.3555 65.1609,10.1365 65.1359,10.0205 C65.0419,9.5795 65.5759,9.4595 65.6279,9.1885 C65.7089,8.7715 66.0979,8.6625 66.2809,8.3895 C66.6169,7.8915 66.9859,7.4425 67.4899,7.0855 C67.6549,6.9695 67.7919,6.8045 67.9709,6.7195 C68.6899,6.3755 69.2579,5.8825 69.7409,5.2835 C69.8629,5.1325 70.0359,5.0025 70.2089,4.9005 C71.9729,3.8595 73.7449,2.8315 75.8129,2.4745 C78.4239,2.0235 80.7229,2.5165 82.6579,4.0825 C83.0709,4.4165 83.5159,4.7305 83.8629,5.1205 C84.5549,5.8975 84.8989,6.8455 85.0769,7.8545 C85.1159,8.0735 85.0929,8.3225 85.1949,8.5085 C85.5829,9.2205 85.6159,10.0165 85.6999,10.7935 C85.8169,11.8745 85.8659,12.9665 85.9419,14.0535 C85.9499,14.1665 85.9639,14.2815 85.9449,14.3925 C85.6749,15.9715 85.5149,17.5685 84.7289,19.0605 C84.5829,19.3375 84.4309,19.6175 84.3319,19.9085 C83.8609,21.3035 82.8409,22.3025 81.5929,23.1445 C80.9539,23.5745 80.3789,24.0845 79.6119,24.3415 C78.7479,24.6315 77.9049,24.9375 76.9899,24.7295 C76.7609,24.6775 76.5059,24.7075 76.2639,24.6915 C75.2259,24.6195 74.1719,24.6215 73.2619,24.0855 C73.0149,23.9405 72.6669,23.9355 72.3659,23.8665 C72.3229,23.9345 72.2799,24.0015 72.2369,24.0695" id="Fill-9" sketch:type="MSShapeGroup"></path>
            <path d="M291.9948,5.0727 C292.5798,5.0727 293.1468,5.0707 293.7128,5.0727 C295.0988,5.0797 296.4838,5.0937 297.8708,5.0957 C299.1788,5.0967 300.4868,4.9627 301.7978,4.7357 C303.5108,4.4387 305.2278,4.1837 306.9408,3.8847 C307.7538,3.7427 308.5608,3.5267 309.3738,3.3707 C309.8558,3.2777 310.0648,3.4787 309.9858,3.9217 C309.8748,4.5477 309.6018,5.1247 309.2238,5.6697 C309.0068,5.9837 308.7508,6.2307 308.3608,6.3427 C308.1218,6.4117 307.8818,6.5057 307.6648,6.6297 C306.8008,7.1257 305.8748,7.2937 304.9228,7.3907 C302.2118,7.6647 299.5278,7.6247 296.8398,7.5927 C295.5778,7.5777 294.3088,7.6207 293.0418,7.6677 C292.6398,7.6827 292.2328,7.7937 291.7518,7.8727 C291.6418,8.6357 291.5348,9.3627 291.4328,10.0897 C291.2218,11.5977 290.9998,13.1047 290.8098,14.6127 C290.6698,15.7327 290.5628,16.8517 290.5928,17.9697 C290.6068,18.5037 290.5128,19.0507 290.4448,19.5917 C290.2908,20.8267 290.1198,22.0607 289.9638,23.2947 C289.9448,23.4437 289.9718,23.5937 289.9808,23.8087 C290.2608,23.8507 290.5238,23.9057 290.7928,23.9287 C292.6048,24.0787 294.4248,24.1917 296.2298,24.3767 C297.5868,24.5147 298.8418,24.2767 299.9708,23.3957 C300.2958,23.1427 300.5568,22.8127 300.8378,22.5107 C301.0358,22.2987 301.1948,22.0497 301.4148,21.8647 C301.6148,21.6947 301.8778,21.6537 302.0858,21.8307 C303.0108,22.6127 303.5628,23.6167 303.8638,24.7747 C303.9538,25.1207 303.8008,25.4297 303.5368,25.6167 C302.9988,25.9977 302.4738,26.3797 301.7778,26.5327 C300.0078,26.9197 298.2788,27.0137 296.5358,26.7827 C295.4238,26.6347 294.2708,26.6557 293.1348,26.6087 C292.4458,26.5807 291.7568,26.5477 291.0648,26.5547 C290.6228,26.5597 290.1748,26.6317 289.7018,26.6767 C289.6308,26.9237 289.5418,27.1087 289.5318,27.2907 C289.4458,28.9127 289.0798,30.5417 289.1758,32.1587 C289.1848,32.3097 289.1318,32.4677 289.1138,32.6227 C288.8288,35.1007 288.5318,37.5787 288.2648,40.0567 C288.1358,41.2577 288.2138,42.4357 288.5018,43.6247 C288.7578,43.6607 288.9908,43.7397 289.2218,43.7177 C290.4078,43.6067 291.5958,43.4947 292.7798,43.3317 C293.4298,43.2417 294.0748,43.0567 294.7208,42.9027 C295.2508,42.7757 295.7588,42.6137 296.1418,42.1657 C296.2968,41.9847 296.5298,41.8467 296.7478,41.7267 C297.5668,41.2757 298.2968,40.7257 298.9048,40.0257 C299.0378,39.8717 299.2058,39.7257 299.3858,39.6287 C299.6538,39.4837 299.9488,39.4437 300.1918,39.6267 C300.4048,39.7867 300.5958,39.9727 300.7998,40.1437 C300.9438,40.2647 301.0698,40.4517 301.2428,40.4867 C301.9558,40.6287 302.2938,41.2267 302.8428,41.5687 C303.6758,42.0867 303.5328,43.1647 302.6638,43.8287 C302.4658,43.9797 302.2408,44.1037 302.0178,44.2197 C300.6748,44.9207 299.3078,45.5337 297.8048,45.7507 C297.1958,45.8387 296.5908,46.0107 295.9888,46.1707 C295.0218,46.4287 294.0558,46.6347 293.0638,46.6777 C292.2068,46.7147 291.3458,46.8517 290.4868,46.9087 C289.6718,46.9637 288.8538,46.9997 288.0428,46.9947 C287.3458,46.9907 286.6828,46.8387 286.0718,46.5597 C284.9018,46.0247 283.7968,45.3967 282.7638,44.6637 C281.4088,43.7017 281.1268,42.2927 281.2928,40.7297 C281.3548,40.1507 281.4808,39.5767 281.4248,38.9987 C281.4048,38.7807 281.4618,38.5477 281.4998,38.3217 C281.5378,38.0937 281.6808,37.8437 281.6338,37.6447 C281.4048,36.6817 281.8058,35.7347 281.9448,34.7817 C281.9608,34.6687 282.0868,34.5287 282.0528,34.4507 C281.6008,33.4137 282.4248,32.3317 282.2288,31.2767 C282.1498,30.8457 282.2798,30.3747 282.5288,29.9187 C282.7148,29.5797 282.7108,29.1607 282.7968,28.7787 C282.8828,28.3967 282.9658,28.0157 283.0648,27.6357 C283.2848,26.7897 283.3178,26.0117 282.4858,25.5067 C282.3888,25.4487 282.3108,25.3607 282.2358,25.2777 C282.0028,25.0187 282.0528,24.7107 282.3898,24.4777 C282.7318,24.2407 283.0928,24.0287 283.4478,23.8047 C283.4928,23.6297 283.5768,23.4697 283.5618,23.3277 C283.4428,22.2337 283.9538,21.1967 284.1808,20.1347 C284.2288,19.9107 284.3838,19.7067 284.2598,19.4677 C283.9418,18.8527 284.1848,18.1937 284.3488,17.5537 C284.4968,16.9817 284.6758,16.4267 284.5608,15.8407 C284.5048,15.5527 284.5718,15.2217 284.6368,14.9157 C284.9148,13.6167 284.9398,12.3067 285.2308,11.0097 C285.4388,10.0807 285.4238,9.1607 285.4328,8.2537 C284.9218,7.8067 284.2078,7.8647 283.6468,7.6097 C283.1208,7.3717 282.6088,7.1077 281.9848,6.8037 C282.1988,6.6377 282.3028,6.5017 282.4238,6.4737 C282.9078,6.3617 283.3958,6.2777 283.8828,6.1947 C284.2898,6.1257 284.6988,6.0807 285.1058,6.0077 C285.2618,5.9787 285.4128,5.9027 285.6208,5.8297 C285.5698,5.0607 285.7238,4.2587 284.9168,3.7997 C284.8218,3.7457 284.7658,3.6327 284.7008,3.5407 C284.4338,3.1617 284.4828,2.8227 284.8668,2.5097 C285.0268,2.3797 285.2038,2.2477 285.3928,2.1717 C286.4078,1.7657 287.4218,1.4047 288.5078,1.6427 C289.2078,1.7957 289.9048,1.9207 290.5348,2.2517 C291.1298,2.5637 291.4608,3.0267 291.5528,3.6597 C291.6178,4.1117 291.6398,4.5717 291.9948,5.0727" id="Fill-11" sketch:type="MSShapeGroup"></path>
            <path d="M415.2956,6.5667 C415.8386,6.5667 416.3646,6.5647 416.8906,6.5667 C418.1766,6.5727 419.4626,6.5857 420.7496,6.5867 C421.9636,6.5887 423.1746,6.4627 424.3856,6.2507 C425.9696,5.9747 427.5566,5.7357 429.1396,5.4567 C429.8916,5.3247 430.6356,5.1237 431.3866,4.9777 C431.8326,4.8907 432.0306,5.0787 431.9676,5.4917 C431.8786,6.0747 431.6376,6.6117 431.2996,7.1207 C431.1046,7.4137 430.8726,7.6427 430.5126,7.7477 C430.2936,7.8117 430.0716,7.8997 429.8736,8.0157 C429.0826,8.4777 428.2276,8.6347 427.3456,8.7247 C424.8366,8.9807 422.3436,8.9437 419.8486,8.9137 C418.6776,8.8997 417.5006,8.9407 416.3256,8.9847 C415.9526,8.9987 415.5766,9.1027 415.1326,9.1767 C415.0476,9.8867 414.9646,10.5647 414.8866,11.2427 C414.7246,12.6467 414.5516,14.0517 414.4096,15.4567 C414.3046,16.5007 414.2306,17.5437 414.2826,18.5857 C414.3076,19.0827 414.2326,19.5937 414.1816,20.0967 C414.0666,21.2477 413.9356,22.3977 413.8176,23.5487 C413.8036,23.6877 413.8326,23.8267 413.8456,24.0277 C414.1056,24.0667 414.3516,24.1177 414.6026,24.1387 C416.2876,24.2777 417.9786,24.3837 419.6576,24.5547 C420.9206,24.6847 422.0796,24.4617 423.1086,23.6407 C423.4036,23.4057 423.6386,23.0977 423.8926,22.8157 C424.0716,22.6187 424.2136,22.3857 424.4136,22.2137 C424.5966,22.0557 424.8386,22.0177 425.0356,22.1817 C425.9126,22.9107 426.4476,23.8467 426.7526,24.9257 C426.8436,25.2477 426.7086,25.5357 426.4676,25.7097 C425.9766,26.0647 425.4986,26.4207 424.8546,26.5637 C423.2206,26.9247 421.6186,27.0127 419.9956,26.7977 C418.9606,26.6597 417.8906,26.6797 416.8356,26.6357 C416.1956,26.6097 415.5556,26.5797 414.9126,26.5867 C414.5026,26.5907 414.0896,26.6587 413.6506,26.6997 C413.5906,26.9297 413.5116,27.1027 413.5066,27.2727 C413.4636,28.7837 413.1596,30.3017 413.2856,31.8087 C413.2976,31.9487 413.2516,32.0967 413.2386,32.2407 C413.0286,34.5507 412.8096,36.8597 412.6166,39.1687 C412.5236,40.2887 412.6226,41.3867 412.9166,42.4947 C413.1546,42.5277 413.3726,42.6007 413.5866,42.5807 C414.6856,42.4767 415.7846,42.3727 416.8796,42.2207 C417.4816,42.1367 418.0766,41.9637 418.6716,41.8197 C419.1606,41.7017 419.6286,41.5507 419.9736,41.1327 C420.1136,40.9637 420.3276,40.8357 420.5276,40.7237 C421.2776,40.3037 421.9416,39.7917 422.4906,39.1387 C422.6106,38.9957 422.7626,38.8587 422.9276,38.7687 C423.1736,38.6337 423.4466,38.5957 423.6766,38.7667 C423.8776,38.9157 424.0586,39.0887 424.2516,39.2477 C424.3886,39.3607 424.5096,39.5357 424.6716,39.5677 C425.3356,39.6997 425.6636,40.2577 426.1796,40.5757 C426.9646,41.0587 426.8566,42.0627 426.0646,42.6817 C425.8846,42.8227 425.6786,42.9377 425.4746,43.0467 C424.2436,43.6997 422.9886,44.2717 421.5976,44.4737 C421.0346,44.5557 420.4766,44.7167 419.9226,44.8657 C419.0296,45.1057 418.1386,45.2977 417.2186,45.3377 C416.4246,45.3727 415.6276,45.5007 414.8326,45.5547 C414.0766,45.6057 413.3186,45.6387 412.5656,45.6347 C411.9186,45.6307 411.2996,45.4897 410.7276,45.2297 C409.6286,44.7317 408.5896,44.1467 407.6146,43.4637 C406.3356,42.5677 406.0416,41.2537 406.1606,39.7977 C406.2046,39.2577 406.3096,38.7237 406.2456,38.1837 C406.2206,37.9807 406.2686,37.7637 406.2986,37.5537 C406.3296,37.3407 406.4556,37.1077 406.4076,36.9227 C406.1746,36.0247 406.5246,35.1427 406.6326,34.2547 C406.6456,34.1497 406.7596,34.0177 406.7266,33.9457 C406.2826,32.9797 407.0236,31.9717 406.8186,30.9877 C406.7346,30.5867 406.8446,30.1477 407.0666,29.7227 C407.2316,29.4067 407.2186,29.0167 407.2896,28.6597 C407.3606,28.3047 407.4286,27.9487 407.5126,27.5947 C407.6986,26.8067 407.7116,26.0807 406.9276,25.6107 C406.8366,25.5567 406.7616,25.4747 406.6906,25.3977 C406.4686,25.1567 406.5076,24.8697 406.8156,24.6517 C407.1276,24.4307 407.4576,24.2337 407.7826,24.0247 C407.8196,23.8607 407.8946,23.7117 407.8776,23.5807 C407.7426,22.5607 408.1936,21.5937 408.3806,20.6047 C408.4196,20.3957 408.5596,20.2057 408.4386,19.9827 C408.1296,19.4097 408.3406,18.7957 408.4786,18.1997 C408.6026,17.6657 408.7566,17.1487 408.6376,16.6027 C408.5786,16.3347 408.6336,16.0257 408.6876,15.7407 C408.9156,14.5307 408.9106,13.3097 409.1506,12.1007 C409.3236,11.2347 409.2886,10.3777 409.2766,9.5327 C408.7926,9.1157 408.1306,9.1697 407.6046,8.9327 C407.1106,8.7107 406.6296,8.4647 406.0446,8.1817 C406.2396,8.0267 406.3326,7.8997 406.4446,7.8737 C406.8906,7.7697 407.3416,7.6907 407.7926,7.6137 C408.1686,7.5487 408.5466,7.5067 408.9226,7.4387 C409.0666,7.4127 409.2056,7.3417 409.3966,7.2727 C409.3326,6.5567 409.4566,5.8097 408.6976,5.3817 C408.6086,5.3317 408.5536,5.2257 408.4916,5.1407 C408.2356,4.7867 408.2726,4.4717 408.6226,4.1797 C408.7686,4.0577 408.9296,3.9347 409.1036,3.8647 C410.0356,3.4857 410.9696,3.1497 411.9826,3.3707 C412.6356,3.5137 413.2856,3.6297 413.8776,3.9377 C414.4366,4.2287 414.7546,4.6597 414.8536,5.2497 C414.9236,5.6707 414.9546,6.0997 415.2956,6.5667" id="Fill-13" sketch:type="MSShapeGroup"></path>
            <path d="M224.8034,5.4862 C224.6714,5.8862 224.3444,6.2862 224.0124,6.5832 C223.5074,7.0332 222.9454,7.4332 222.3664,7.7762 C221.9704,8.0112 221.5104,8.1442 221.0684,8.2652 C219.4174,8.7192 217.3164,8.4882 215.6824,9.0122 C212.3404,9.7432 211.8214,9.8622 209.8744,9.9492 C207.3354,10.0622 205.1864,10.5382 202.6444,10.9522 C202.4834,10.9782 202.3244,11.0282 202.1344,11.0752 C201.7774,11.8482 201.4394,12.6532 201.3954,13.4432 C201.3264,14.6842 200.9624,15.8722 200.6724,17.0762 C200.2064,19.0172 199.8704,20.9622 199.7524,22.9222 C199.7484,22.9972 199.7944,23.0702 199.8444,23.2342 C200.2144,23.3552 200.6664,23.2502 201.0994,23.2222 C202.2444,23.1482 203.3984,22.9812 204.5354,22.9832 C206.0504,22.9872 207.5564,22.7852 209.0704,22.5882 C210.4754,22.4052 211.6944,21.7562 212.8724,20.9552 C213.2194,20.7192 213.5154,20.3732 214.0474,20.3792 C214.3724,20.6592 214.3224,21.1102 214.3584,21.5432 C214.3994,22.0532 214.1234,22.5922 214.3914,23.0892 C214.4564,23.2102 214.2884,23.4662 214.2384,23.6612 C213.9334,24.8562 213.3264,25.7382 211.9734,25.8542 C211.1954,26.2372 210.3804,26.3442 209.5594,26.3972 C207.7184,26.5172 205.8704,26.7112 204.0394,26.7202 C202.7334,26.7272 201.4284,26.8092 200.1214,26.8732 C199.8034,26.8882 199.4834,26.9562 199.1174,27.0062 C199.0524,27.2502 198.9794,27.4422 198.9554,27.6362 C198.7164,29.5502 198.4814,31.4632 198.2534,33.3772 C198.0534,35.0572 198.2334,36.7002 198.2594,38.3582 C198.2654,38.7482 198.4344,39.1202 198.5444,39.5672 C199.2504,39.4592 199.8954,39.3772 200.5374,39.2572 C201.1894,39.1342 201.8414,38.9902 202.4874,38.8232 C203.1384,38.6552 203.7794,38.4562 203.9444,37.6362 C203.9704,37.5082 204.1494,37.3702 204.2844,37.2852 C204.8984,36.8992 205.5194,36.5252 206.1424,36.1572 C206.7134,35.8202 206.9494,35.8442 207.4584,36.2292 C208.3244,36.8832 209.1964,37.5282 210.0624,38.1822 C210.3404,38.3912 210.6334,38.5902 210.8714,38.8412 C211.3084,39.3012 211.4164,39.9342 211.1204,40.5122 C210.8074,41.1242 210.3634,41.6572 209.6344,41.9862 C208.3394,42.5702 207.0074,42.8242 205.6694,43.1222 C204.8994,43.2942 204.1334,43.5142 203.3714,43.7402 C202.4454,44.0162 201.5214,44.2852 200.5704,44.3402 C200.3654,44.3522 200.1374,44.3272 199.9594,44.4132 C199.0864,44.8352 198.3794,44.4932 197.6264,44.2312 C196.4554,43.8222 195.6964,42.9582 194.9644,42.0562 C194.6224,41.6362 194.3514,41.1562 194.0114,40.7342 C193.1264,39.6322 192.8984,38.2542 192.6704,36.8752 C192.6124,36.5232 192.5844,36.1642 192.5534,35.8062 C192.4454,34.5652 192.4504,33.3202 192.6544,32.0522 C192.8044,31.1212 192.8704,30.1842 192.9694,29.2492 C193.0394,28.5982 193.0694,27.9442 193.1774,27.2962 C193.2564,26.8252 193.1464,26.5082 192.7454,26.3052 C192.2904,26.0742 191.8454,25.8362 191.5124,25.4382 C191.0144,24.8432 191.0184,24.6562 191.6644,23.8182 C192.3414,23.8132 192.8834,24.2132 193.5764,23.8722 C193.6364,23.7122 193.7424,23.5242 193.7734,23.3302 C193.8914,22.5992 194.0004,21.8672 194.0804,21.1352 C194.1244,20.7282 194.1324,20.3332 194.3184,19.9312 C194.4374,19.6742 194.5354,19.3152 194.4484,19.0922 C194.1854,18.4182 194.5634,17.8402 194.7864,17.2312 C194.9574,16.7652 195.1624,16.3242 195.1134,15.8052 C195.0774,15.4222 195.2494,14.9992 195.3314,14.5942 C195.4214,14.1482 195.5124,13.7032 195.6054,13.2582 C195.7224,12.6962 195.7174,12.1262 195.9904,11.5722 C196.1104,11.3302 196.0624,11.0192 196.0964,10.6742 C195.2694,10.4252 194.6064,9.9602 193.9724,9.4552 C193.5414,9.1132 193.1804,8.7112 193.0284,8.1522 C192.9174,7.7482 193.1814,7.4032 193.6194,7.4172 C193.8614,7.4242 194.0924,7.5102 194.3334,7.5182 C195.0214,7.5412 195.7104,7.5572 196.4014,7.5452 C196.6544,7.5412 196.7614,7.2742 196.6474,7.0112 C196.4044,6.4502 196.5394,6.0822 197.0874,5.8392 C197.6964,5.5692 198.3104,5.5362 198.8754,5.7682 C199.3824,5.9762 199.8754,6.2302 200.3284,6.5262 C200.7044,6.7722 201.0954,6.9012 201.5594,6.8882 C202.2124,6.8692 202.8654,6.9002 203.5194,6.8392 C206.0164,6.6072 208.5134,6.3752 211.0094,6.0792 C211.8164,5.9832 212.6484,5.9452 213.4344,5.5782 C213.5094,5.5432 213.5954,5.5302 213.6764,5.5202 C215.6384,5.2822 216.4714,5.6902 218.4344,5.4372 L224.8034,5.4862 Z" id="Fill-15" sketch:type="MSShapeGroup"></path>
            <path d="M317.2111,19.9039 C317.6031,19.8009 317.8521,19.7719 318.0631,19.6749 C320.5711,18.5279 322.1241,16.6739 323.6001,14.8259 C324.5201,13.6739 325.1461,12.3979 325.8741,11.1699 C326.0781,10.8249 326.1761,10.4529 326.4891,9.6879 C325.7601,10.1759 325.4141,10.3519 325.1591,10.5869 C322.3621,13.1649 319.8191,15.8799 317.5661,18.7419 C317.3241,19.0499 317.3381,19.4619 317.2111,19.9039 M339.7271,41.9889 C339.5761,42.2909 339.4421,42.5599 339.3231,42.7969 C337.5041,43.6869 336.1611,42.9649 334.8431,42.3149 C333.8221,41.8109 332.8981,41.1549 331.9401,40.5549 C331.7171,40.4159 331.5201,40.2409 331.3261,40.0669 C330.3811,39.2209 329.4551,38.3539 328.4961,37.5229 C326.1521,35.4899 323.7991,33.4649 321.4361,31.4509 C320.6401,30.7729 319.8011,30.1409 318.9841,29.4859 C318.2831,28.9239 317.5901,28.3509 316.8811,27.7979 C316.5611,27.5489 316.2111,27.3359 315.8041,27.0579 C315.6151,27.3469 315.4091,27.5459 315.3651,27.7509 C315.1521,28.7319 314.8051,29.6859 314.4611,30.6509 C314.0901,31.6879 313.8591,32.7569 313.6421,33.8149 C313.3001,35.4859 312.9491,37.1429 312.2591,38.7849 C311.6081,40.3369 311.3611,41.9349 311.1681,43.5249 C311.0591,44.4259 310.6961,45.2019 309.8351,45.7859 C308.9831,46.3639 308.1801,46.5139 307.3921,46.0919 C307.1961,45.9869 307.0041,45.8739 306.8001,45.7589 C306.8181,45.5709 306.7771,45.3849 306.8571,45.2589 C307.2561,44.6309 307.2761,43.9829 307.3501,43.3369 C307.5131,41.9149 307.6671,40.4929 307.8261,39.0709 C307.8401,38.9489 307.8451,38.8229 307.8861,38.7039 C308.2221,37.7339 308.1991,36.7669 308.3751,35.7979 C308.4631,35.3139 308.4011,34.8299 308.6801,34.3449 C308.7561,34.2119 308.7461,34.0179 308.7201,33.8699 C308.6101,33.2349 308.7731,32.5879 308.9211,31.9329 C309.1691,30.8369 309.3741,29.7379 309.6171,28.6419 C309.6981,28.2789 309.8031,27.9069 309.9691,27.5619 C310.1401,27.2079 310.3561,26.9109 310.1621,26.5309 C310.0781,26.3679 310.1791,26.0439 310.2831,25.8199 C310.6831,24.9609 310.4741,24.3459 309.9531,23.7609 C309.4111,23.1529 308.8221,22.5679 308.4951,21.7859 C308.3201,21.3669 308.1581,20.9399 308.0041,20.5099 C307.9351,20.3189 307.9811,20.1199 308.1591,19.9409 C308.3431,19.7569 308.5191,19.7539 308.7231,19.8209 C309.1641,19.9669 309.6411,20.0459 310.0571,20.2319 C310.6451,20.4949 311.2731,20.5009 311.9411,20.3609 C312.5921,19.7329 313.1001,19.0589 313.4871,18.2509 C313.8291,17.5369 314.2341,16.7519 315.1421,16.4359 C314.9741,15.5219 315.6091,14.8869 316.1321,14.2569 C316.4701,13.8489 316.8711,13.4999 317.0661,12.9989 C317.1241,12.8529 317.2521,12.6739 317.3861,12.6019 C317.8611,12.3479 318.0431,11.8849 318.3101,11.4979 C318.9151,10.6209 319.5701,9.7979 320.4341,9.1419 C320.5401,9.0619 320.6881,8.9939 320.7411,8.8919 C321.2651,7.8939 322.2871,7.4429 323.0961,6.7739 C323.5181,6.4249 324.1011,6.1909 324.6221,6.0729 C325.8621,5.7919 327.1131,5.5959 328.3231,5.7099 C328.7921,5.7539 329.2651,5.8719 329.6601,6.0749 C330.2671,6.3849 330.5781,6.9289 330.4761,7.7049 C330.4281,8.0689 330.3981,8.4359 330.4061,8.7939 C330.4361,10.1279 330.1321,11.4649 329.7491,12.8019 C329.3891,14.0559 329.0311,15.3099 328.6401,16.5599 C328.5021,16.9979 328.2821,17.4279 328.0751,17.8519 C327.3521,19.3299 326.4691,20.7369 325.4371,22.0589 C324.8891,22.7599 324.1431,23.2739 323.3801,23.7289 C322.1681,24.4509 320.9701,25.2099 319.6521,25.6679 C319.5351,25.7089 319.4291,25.8019 319.2681,25.9009 C319.2801,26.2059 319.5341,26.3189 319.7211,26.4649 C321.7261,28.0349 323.7551,29.5779 325.7441,31.1669 C327.6751,32.7099 329.5301,34.3409 331.4881,35.8509 C333.2961,37.2459 335.0821,38.6729 337.1491,39.7509 C338.1521,40.2739 339.1391,40.8549 339.7271,41.9889" id="Fill-17" sketch:type="MSShapeGroup"></path>
            <path d="M137.827,3.6216 C137.572,3.7796 137.275,3.8996 137.071,4.1026 C136.617,4.5546 136.133,4.2956 135.674,4.4596 C135.588,4.0156 134.524,4.2386 134.996,3.3806 C135.063,3.2596 134.821,3.0266 134.711,2.8246 C134.156,2.9446 133.646,2.9396 133.179,2.7826 C132.939,2.7016 132.842,2.5056 132.929,2.2486 C133.017,1.9886 133.067,1.7096 133.363,1.5186 C133.576,1.3816 133.763,1.2036 134.021,0.9956 C135.252,0.9896 136.477,1.0776 137.458,1.7896 C137.709,1.9716 138.048,2.0516 138.341,2.1766 C138.381,2.6966 137.762,2.7886 137.587,3.2416 C137.638,3.3456 137.714,3.5006 137.79,3.6546 L137.827,3.6216 Z" id="Fill-19" sketch:type="MSShapeGroup"></path>
            <path d="M56.0427,12.6039 C56.3007,12.6399 56.5587,12.6759 56.8577,12.7169 C56.8527,12.9359 56.8487,13.1339 56.8447,13.3419 C55.9497,13.3339 55.9497,13.3339 56.0927,12.5629 C56.0947,12.5609 56.0427,12.6039 56.0427,12.6039" id="Fill-21" sketch:type="MSShapeGroup"></path>
            <path d="M50.6429,10.0029 C50.8519,9.8579 50.9729,9.7689 51.1009,9.6939 C51.1069,9.6899 51.2089,9.8049 51.1939,9.8529 C51.1599,9.9529 51.0929,10.0889 51.0119,10.1279 C50.9439,10.1599 50.8359,10.0749 50.6429,10.0029" id="Fill-23" sketch:type="MSShapeGroup"></path>
            <path d="M390.4158,9.8783 C389.8578,10.9713 389.3698,12.0993 388.8018,13.1873 C387.6058,15.4803 385.7588,17.8693 384.9808,20.3123 C384.4798,21.8843 382.7208,28.9393 382.3978,29.9943 C382.1148,30.9183 381.4878,31.6423 380.8688,32.3283 C380.3728,32.8783 379.6608,32.7413 379.0368,32.6823 C378.7828,32.6583 378.5268,32.5363 378.3128,32.3953 C377.4018,31.7953 377.4448,31.1413 376.5198,30.5663 C375.6788,30.0433 375.2708,29.2023 375.1048,28.2643 C374.8678,26.9223 374.7488,25.5443 374.6568,24.1693 C374.5988,23.2953 374.7118,22.3963 374.6908,21.5143 C374.6798,21.0783 374.5608,20.6493 374.4518,20.2303 C374.2428,19.4313 374.4908,18.5743 374.3538,17.7793 C374.2088,16.9403 374.2408,16.1293 374.4508,15.2773 C374.5248,14.9793 374.3608,14.6403 374.3218,14.3173 C374.1908,13.2313 374.0748,12.1413 373.9358,11.0573 C373.9088,10.8483 373.8038,10.6563 373.6798,10.2953 C373.4608,10.6923 373.3028,10.9473 373.1748,11.2163 C372.8468,11.9083 372.5048,12.5963 372.2228,13.3053 C372.0018,13.8603 371.8488,14.4423 371.6888,15.0163 C371.2608,16.5483 370.8068,18.0633 370.2248,19.5623 C369.7678,20.7403 369.6498,22.0393 369.4078,23.2883 C368.6018,27.4383 368.4058,31.6083 368.1018,35.7723 C367.9488,37.8623 367.9868,39.9523 367.8238,42.0433 C367.7748,42.6643 367.3658,43.3003 367.0668,43.9043 C366.8088,44.4243 366.4188,44.8273 365.8508,45.0153 C365.1988,45.2323 364.2678,45.0253 363.9358,44.4603 C363.5618,43.8253 363.2708,43.1333 362.9088,42.3923 C363.1228,42.3233 363.2578,42.2803 363.4108,42.2303 C363.3598,41.1953 363.3028,40.1543 363.2568,39.1123 C363.2248,38.3673 363.1698,37.6223 363.1958,36.8743 C363.2128,36.3843 363.3658,35.8903 363.4428,35.3963 C363.6238,34.2393 363.4738,33.1093 363.4378,31.9703 C363.4358,31.8873 363.4138,31.7933 363.4458,31.7233 C364.0408,30.4023 363.7378,29.0223 364.0108,27.6713 C364.3448,26.0193 364.4858,24.3413 364.7558,22.6783 C364.8948,21.8273 365.1148,20.9803 365.3368,20.1403 C365.4008,19.9003 365.5988,19.6873 365.8028,19.3513 C365.4638,18.6483 365.7398,17.8413 366.1958,17.0483 C366.5138,16.4973 366.3668,15.9153 366.4238,15.3473 C366.4428,15.1593 366.4228,14.9543 366.4938,14.7843 C366.9108,13.7843 367.3228,12.7863 367.4528,11.7103 C367.4728,11.5523 367.5668,11.3853 367.6608,11.2473 C368.0318,10.6993 368.2188,10.1133 368.3598,9.4683 C368.6998,7.9083 369.3858,6.4653 370.3978,5.2043 C370.6428,4.8983 371.0538,4.6723 371.4218,4.5413 C372.6958,4.0863 374.0108,3.8103 375.3158,3.8373 C376.0128,3.8513 376.5428,4.3623 376.8568,5.0203 C377.2718,5.8893 377.7198,6.7433 378.0638,7.6473 C378.4518,8.6703 378.8878,9.6703 379.1238,10.7723 C379.4458,12.2803 379.5268,13.8243 379.6218,15.3713 C379.6938,16.5323 379.7958,17.6883 379.8978,19.0193 C380.4948,17.6513 381.0078,16.4433 381.5468,15.2463 C382.2128,13.7683 382.8588,12.2823 383.5498,10.8133 C384.1788,9.4783 384.9428,8.2853 385.9538,7.2423 C387.2918,5.8603 388.8828,5.3193 390.6538,5.4353 C391.1568,5.4683 390.7448,5.4863 391.2418,5.5533 C392.7118,5.7533 393.7798,6.5863 394.6268,7.7573 C395.7488,9.3073 396.2208,11.1823 396.7188,13.0383 C397.2628,15.0643 397.5448,17.1633 397.8238,19.2643 C398.0588,21.0353 398.2388,22.8383 398.6928,24.5353 C399.1358,26.1933 399.2918,27.9223 399.7208,29.5753 C399.8848,30.2073 400.0628,30.8343 400.2158,31.4693 C400.6818,33.3983 400.6798,35.4083 400.6768,37.4163 C400.6738,39.0923 400.7848,40.7453 401.0848,42.3703 C401.2518,43.2723 400.6538,43.8813 399.7738,43.8313 C398.5188,43.7603 397.5978,43.0833 396.6778,42.3373 C396.1168,41.8813 395.4298,41.5863 394.8028,41.2143 C394.6278,41.1103 394.4468,41.0073 394.3008,40.8673 C394.0238,40.6023 393.9268,40.3813 394.3188,39.9803 C394.5678,39.7253 394.6738,39.2053 394.6728,38.8193 C394.6698,38.1043 394.5288,37.4013 394.4698,36.6893 C394.3948,35.7843 394.3198,34.8783 394.2888,33.9673 C394.2678,33.3613 394.3368,32.7443 394.3388,32.1343 C394.3398,31.8043 394.2748,31.4803 394.2558,31.1513 C394.2378,30.8533 394.2198,30.5523 394.2418,30.2523 C394.2688,29.8713 394.4408,29.4823 394.1598,29.1403 C394.0948,29.0603 394.0978,28.8543 394.1508,28.7423 C394.4408,28.1323 394.2778,27.6963 393.8748,27.2643 C393.5268,26.8893 393.4588,26.3703 393.5078,25.8133 C393.5358,25.4973 393.4478,25.1793 393.4028,24.8643 C393.2518,23.8073 393.1028,22.7503 392.9418,21.6953 C392.8228,20.9103 392.7128,20.1213 392.5458,19.3503 C392.4348,18.8393 392.2838,18.3563 392.4568,17.8033 C392.5018,17.6593 392.4488,17.4723 392.3998,17.3243 C392.0718,16.3383 391.9888,15.3053 391.9758,14.2423 C391.9688,13.6683 391.8418,13.0923 391.6878,12.5483 C391.3788,11.4543 391.0208,10.3773 390.6638,9.3023 C390.6098,9.1403 390.6028,9.5133 390.4158,9.8783" id="Fill-25" sketch:type="MSShapeGroup"></path>
            <path d="M178.9035,5.6682 C178.2715,5.7412 177.7325,5.7712 177.1945,5.8702 C175.6305,6.1592 174.0745,6.6552 172.5025,6.8662 C171.5425,6.9942 170.5775,7.4532 169.6145,7.7532 C169.1855,7.8862 168.7545,7.9942 168.2125,8.1452 C168.9935,11.0152 169.0075,13.9972 168.7625,17.2412 C169.3555,16.8422 169.8245,16.6262 170.2165,16.2432 C171.1095,15.3672 171.9405,14.3552 172.8415,13.4992 C173.8185,12.5712 174.7785,11.6222 175.6495,10.5002 C176.7875,9.0322 177.9745,7.6232 178.9035,5.6682 M169.1275,26.8472 C169.0505,27.9712 168.9815,28.9682 168.9145,29.9652 C168.8455,30.9962 168.7865,32.0282 168.7065,33.0572 C168.6525,33.7592 168.6615,34.4962 168.4835,35.1522 C168.0415,36.7812 168.1055,38.4782 167.9155,40.1382 C167.8585,40.6342 167.9995,41.0132 168.3265,41.3192 C168.7875,41.7512 169.3075,41.9892 169.8735,41.9292 C171.0175,41.8102 172.1665,41.7082 173.2705,41.2722 C173.5925,41.1452 173.9145,41.0122 174.2295,40.8612 C174.9365,40.5212 175.6435,40.1832 176.3415,39.8162 C176.8015,39.5752 177.2255,39.1772 177.7015,39.0502 C178.1035,38.9432 178.4315,38.7382 178.7775,38.5102 C179.5155,38.0222 180.2795,37.5912 181.0105,37.0872 C181.4135,36.8082 181.7845,36.4482 182.1425,36.0852 C182.3815,35.8422 182.5525,35.5002 182.7895,35.2532 C183.9425,34.0492 184.6785,32.5932 184.6835,30.6762 C184.6845,30.5462 184.6825,30.4152 184.6925,30.2872 C184.8955,27.8542 183.0385,25.1692 180.5835,25.3182 C179.6155,25.3762 178.6435,25.3972 177.6795,25.5132 C175.8295,25.7372 173.9295,25.4512 172.1375,26.3032 C171.9955,26.3702 171.8235,26.3362 171.6665,26.3652 C170.8375,26.5192 170.0085,26.6792 169.1275,26.8472 M163.6575,6.6392 C163.3555,6.2472 163.1025,5.9182 162.8595,5.6032 C163.2325,5.0682 163.7015,4.9192 164.3845,5.0912 C164.4855,5.1162 164.5965,5.1482 164.6745,5.2112 C165.2395,5.6732 165.7235,5.4882 166.3015,5.1512 C168.2815,3.9982 170.3815,3.0842 172.5525,2.3602 C174.6245,1.6702 176.7505,1.4392 178.9365,1.7762 C180.3845,1.9992 181.6745,2.4992 182.7345,3.5212 C183.5305,4.2872 183.7505,5.2992 183.7505,6.3362 C183.7505,7.1482 183.5235,7.9222 183.1155,8.6692 C182.5265,9.7452 182.0845,10.9012 181.5515,12.0102 C181.3145,12.5042 180.9805,12.9512 180.7385,13.4432 C179.5315,15.8962 177.6065,17.7442 175.6285,19.5512 C174.5005,20.5822 173.3765,21.6182 172.2565,22.6582 C172.0875,22.8142 171.9465,23.0002 171.7205,23.2542 C171.9895,23.3082 172.1585,23.3782 172.3225,23.3692 C174.6735,23.2372 177.0095,23.3812 179.3355,23.7262 C181.4175,24.0342 183.4085,24.6112 185.1205,25.8852 C187.2835,27.4942 188.5045,29.5972 188.3435,32.3762 C188.3285,32.6362 188.3625,32.9012 188.3885,33.1622 C188.4515,33.7712 188.4425,34.3652 188.2235,34.9542 C188.1265,35.2172 188.1085,35.5162 188.0925,35.8012 C188.0505,36.5302 188.0455,37.2422 187.7095,37.9412 C187.4285,38.5232 187.3615,39.2042 187.1635,39.8302 C187.0785,40.0982 186.9355,40.3652 186.7595,40.5852 C185.6935,41.9162 184.3335,42.8662 182.8065,43.5982 C182.0945,43.9392 181.4095,44.3392 180.6885,44.6592 C178.6905,45.5462 176.6535,46.3312 174.4535,46.5422 C173.4115,46.6422 172.5425,46.1312 171.6905,45.6172 C171.4685,45.4832 171.2505,45.3432 171.0425,45.1882 C170.8795,45.0672 170.6515,44.9442 170.6025,44.7772 C170.5065,44.4552 170.2455,44.3622 170.0405,44.1712 C169.6475,43.8052 169.2905,43.3812 169.0025,42.9282 C168.6735,42.4092 168.4395,41.8302 168.1535,41.2832 C168.1275,41.2342 168.0265,41.2242 167.8635,41.1552 C167.8635,41.4582 167.8545,41.7062 167.8655,41.9532 C167.8885,42.4262 167.9535,42.9002 167.9455,43.3732 C167.9325,44.1812 167.6455,44.3912 166.8795,44.2192 C165.2405,43.8512 163.9395,42.9542 162.8145,41.6902 C163.4635,41.1512 163.2325,40.4412 163.2615,39.8122 C163.3225,38.5002 163.2765,37.1822 163.3215,35.8692 C163.3935,33.7692 163.4835,31.6702 163.6055,29.5722 C163.6985,27.9702 163.8665,26.3722 163.9745,24.7702 C164.0155,24.1662 164.0125,23.5222 163.5835,23.0452 C162.7685,22.1382 163.0365,20.9872 163.7165,20.2542 C164.1775,19.7582 164.3655,19.2372 164.3845,18.5612 C164.4295,17.0172 164.5575,15.4752 164.6595,13.9332 C164.7585,12.4362 164.6975,10.9492 164.4585,9.3442 C163.9005,9.5722 163.3965,9.7602 162.9075,9.9812 C161.8625,10.4522 160.9245,10.4142 159.8945,9.7782 C160.9365,8.4972 162.5265,7.8872 163.6575,6.6392" id="Fill-27" sketch:type="MSShapeGroup"></path>
            <path d="M440.7614,29.1987 C440.9854,29.1837 441.1524,29.1877 441.3104,29.1597 C443.1104,28.8457 444.9414,28.7207 446.7804,28.6237 C448.4494,28.5357 449.2204,28.3927 450.8384,28.0347 C451.4924,27.8907 451.6964,27.6607 451.6464,27.0727 C451.6104,26.6517 451.5674,26.2317 451.5294,25.8117 C451.4824,25.3077 451.4624,24.8007 451.3884,24.2987 C451.1654,22.7897 450.9214,23.0157 450.6854,21.5077 C450.6414,21.2287 450.5664,20.9507 450.5514,20.6707 C450.4604,18.9507 449.9544,17.2707 449.6814,15.5677 C449.6504,15.3737 449.5974,15.1757 449.5134,14.9917 C449.2924,14.5077 449.2024,14.0087 449.1534,13.4997 C449.1344,13.3057 449.1284,13.0787 449.0074,12.9267 C448.6914,12.5287 448.6564,12.0747 448.4994,11.6447 C448.3104,11.1307 448.0934,10.6237 447.8714,10.1187 C447.8384,10.0447 447.7074,9.9987 447.5884,9.9177 C447.5014,10.1087 447.4374,10.2377 447.3824,10.3677 C446.6174,12.1787 446.0984,14.0607 445.3064,15.8647 C445.2494,15.9937 445.2444,16.1377 445.2024,16.2727 C444.9534,17.0817 444.7744,17.9147 444.4314,18.6927 C443.9954,19.6837 443.5674,20.6727 443.2044,21.6887 C442.6614,23.2097 442.9074,22.9697 442.3264,24.4807 C442.0534,25.1937 441.6914,25.8847 441.6044,26.6477 C441.5884,26.7827 441.5304,26.9317 441.4344,27.0367 C441.0144,27.4967 441.0064,28.0827 440.7784,28.6007 C440.7054,28.7657 440.7634,28.9747 440.7614,29.1987 M451.7754,31.6977 C450.9834,31.7407 450.3194,31.7777 449.6544,31.8117 C449.1534,31.8367 448.6514,31.8617 448.1484,31.8787 C446.9764,31.9167 445.8034,31.9517 444.6304,31.9867 C443.2264,32.0277 441.8304,32.1397 440.4374,32.2667 C440.2054,32.2877 439.9704,32.3057 439.7454,32.3527 C439.4404,32.4187 439.2234,32.5687 439.1304,32.8427 C438.9584,33.3507 438.7504,33.8507 438.5804,34.3587 C437.8434,36.5627 436.8704,38.6947 435.8994,40.8247 C435.1744,42.4127 434.4654,44.0037 433.8264,45.6197 C433.6594,46.0417 433.4924,46.4657 433.3084,46.8827 C433.0774,47.4077 432.5534,47.6217 431.9424,47.7247 C431.3314,47.8277 430.7174,47.6987 430.1574,47.5367 C429.5964,47.3747 429.3674,47.0737 429.3984,46.5477 C429.4534,45.5847 429.7474,44.6737 430.1344,43.7817 C430.2364,43.5477 430.4024,43.3237 430.4424,43.0817 C430.4934,42.7677 430.8834,42.6797 430.9714,42.4087 C431.0494,42.1717 431.1114,41.9287 431.2094,41.6977 C431.2514,41.5987 431.3664,41.5237 431.4474,41.4377 C431.4874,41.3947 431.5694,41.3407 431.5584,41.3087 C431.3624,40.7797 431.8674,40.4997 432.0944,40.1157 C432.2644,39.8277 432.2904,39.4807 432.4274,39.1757 C432.7314,38.5017 433.0824,37.8427 433.3824,37.1677 C433.6694,36.5227 434.0514,35.9107 434.2484,35.2357 C434.2884,35.1007 434.3434,34.9667 434.4124,34.8407 C434.9054,33.9287 435.1564,32.9387 435.6044,32.0147 C435.8994,31.4067 436.0334,30.7437 436.4564,30.1757 C436.5694,30.0247 436.5214,29.7927 436.5934,29.6127 C436.8064,29.0857 437.0404,28.5647 437.2724,28.0437 C437.4574,27.6267 437.6644,27.2127 437.6094,26.7507 C437.5914,26.5967 437.6294,26.4897 437.7494,26.3747 C438.0764,26.0617 438.3604,25.7297 438.3284,25.2687 C438.3214,25.1657 438.4074,25.0577 438.4664,24.9577 C438.5974,24.7337 438.7624,24.5227 438.8684,24.2907 C438.9734,24.0627 439.1354,23.7927 439.0694,23.5807 C438.9814,23.2987 439.4464,23.1577 439.2094,22.8917 C439.3644,22.5687 439.5184,22.2447 439.6744,21.9217 C439.7354,21.7927 439.8374,21.6687 439.8554,21.5357 C439.9564,20.7767 440.3644,20.1017 440.6034,19.3827 C440.7154,19.0437 441.0274,18.7367 440.8694,18.3417 C441.1594,18.0667 441.2444,17.7077 441.3894,17.3757 C441.6754,16.7217 441.9394,16.0607 442.2054,15.3997 C442.3844,14.9547 442.7274,14.5577 442.7264,14.0597 C443.0954,13.7637 442.9094,13.3847 442.8844,13.0007 C443.2144,12.8057 443.3494,12.5157 443.4814,12.1887 C443.7034,11.6407 444.0304,11.1277 443.9554,10.5157 C443.9484,10.4647 444.0124,10.4077 444.0064,10.3567 C443.9604,9.9827 444.5414,9.8297 444.4524,9.4717 C444.3674,9.1317 444.5324,8.8547 444.6594,8.5817 C444.8964,8.0777 444.9954,7.5717 444.8994,7.0307 C444.8854,6.9527 444.8644,6.8507 444.9084,6.7947 C445.3184,6.2647 445.3604,5.6347 445.5164,5.0407 C445.6584,4.4997 445.6994,3.9367 445.7904,3.3507 C446.3984,2.9607 447.0554,2.8097 447.8954,2.8997 C448.9254,3.0097 449.7994,4.3617 449.3564,5.1337 C449.0704,5.6307 448.8644,6.1617 448.6204,6.6837 C448.8234,6.8567 448.9824,7.0007 449.1524,7.1367 C450.3044,8.0587 451.1734,9.1297 451.6844,10.3937 C451.7474,10.5477 451.8614,10.6917 451.9734,10.8287 C452.1434,11.0367 452.3794,11.2217 452.2644,11.5087 C452.2544,11.5327 452.2554,11.5767 452.2734,11.5887 C452.7704,11.9187 452.7354,12.4497 453.0004,12.8617 C453.4294,13.5297 453.5904,14.2527 453.7534,14.9717 C454.0994,16.5007 454.4254,18.0327 454.7094,19.5687 C454.9004,20.5997 455.0144,21.6367 455.3404,22.6537 C455.4434,22.9747 455.3684,23.3287 455.4244,23.6627 C455.5844,24.6117 455.7734,25.5567 455.9434,26.5047 C456.0784,27.2587 456.2154,28.0137 456.3254,28.7697 C456.3764,29.1177 456.4864,29.4077 456.8104,29.6697 C457.1824,29.9717 457.1744,30.0857 456.8384,30.4727 C456.6304,30.7127 456.5484,30.9477 456.5644,31.2437 C456.6744,33.2427 456.7104,35.2487 457.1244,37.2277 C457.3984,38.5367 457.6344,39.8467 457.8394,41.1607 C457.9524,41.8877 458.0214,42.6187 458.1154,43.3487 C458.2054,44.0487 457.7344,44.4177 456.9294,44.2587 C455.7074,44.0157 454.5534,43.6457 453.5494,42.9677 C453.2914,42.7937 452.9414,42.7207 452.6624,42.5647 C452.3834,42.4067 452.1404,42.2037 451.8784,42.0177 C451.8424,41.7267 451.8074,41.4517 451.7754,41.1927 C451.8104,41.1547 451.8254,41.1217 451.8484,41.1167 C452.0414,41.0827 452.2364,41.0527 452.4384,41.0207 C452.6714,40.6817 452.6154,40.3147 452.5734,39.9517 C452.4554,38.9407 452.3234,37.9317 452.2124,36.9207 C452.0984,35.8817 451.9964,34.8427 451.9024,33.8027 C451.8614,33.3537 451.8554,32.9027 451.8304,32.4527 C451.8184,32.2317 451.7984,32.0117 451.7754,31.6977" id="Fill-29" sketch:type="MSShapeGroup"></path>
            <path d="M486.1368,37.2618 C486.3778,37.2368 486.6298,37.2548 486.8538,37.3478 C487.6588,37.6798 488.2908,38.2668 488.9548,38.8038 C489.3868,39.1538 489.2378,39.7518 489.4808,40.1778 C488.9418,41.0658 488.1748,41.4778 487.2548,41.5828 C485.9068,41.7368 484.5508,41.9378 483.1998,41.9308 C479.8728,41.9148 476.8458,42.8988 473.9658,44.4608 C473.1838,44.8848 472.3828,45.2788 471.6268,45.7448 C470.8768,46.2068 470.1728,46.7418 469.3348,47.3248 C468.6408,47.2538 467.8288,46.9958 467.0588,46.6728 C466.3948,46.3948 465.8978,45.8638 465.4798,45.2788 C465.2168,44.9118 464.8748,44.6008 464.5668,44.2658 C464.5038,44.1978 464.3998,44.1568 464.3588,44.0798 C463.7448,42.9308 462.7358,42.0298 462.2998,40.7658 C462.1728,40.3998 462.0768,40.0808 462.2598,39.6938 C462.3718,39.4588 462.4018,39.1468 462.3658,38.8838 C461.9138,35.5888 462.2988,32.3368 462.9078,29.1068 C463.3748,26.6268 463.8718,24.1468 464.5048,21.7058 C464.7558,20.7398 464.8088,19.7408 465.1528,18.7838 C465.4688,17.9038 465.7828,17.0218 465.9038,16.0948 C466.2008,13.8118 466.6748,11.5448 466.6618,9.2238 C466.6588,8.6168 466.6538,7.9918 466.7848,7.4048 C467.0058,6.4068 466.8038,5.4448 466.6548,4.4798 C466.6098,4.1888 466.3868,3.8868 466.1668,3.6708 C465.9038,3.4118 465.5498,3.2498 465.2468,3.0288 C464.6488,2.5948 464.6438,2.5488 464.9718,1.5708 C466.5598,1.1248 468.0758,1.3448 469.5338,2.1458 C470.6858,2.7788 470.4188,2.7158 471.2358,3.7968 C472.1668,5.0308 471.3858,7.2468 471.4618,8.6678 C471.5328,9.9878 471.3558,12.1478 471.2338,13.4648 C471.0848,15.0738 470.9168,16.6828 470.6298,18.2688 C470.1538,20.8918 469.4758,23.4778 468.9188,26.0878 C468.1168,29.8408 467.4488,33.6188 466.9278,37.4218 C466.7878,38.1878 467.0808,39.1878 467.3818,40.0298 C467.6848,40.8738 468.5638,41.3618 469.4388,41.1638 C471.4198,40.7178 474.1018,40.4288 475.4158,40.1848 C477.0258,39.8848 479.4148,38.2568 481.0388,37.8198 C481.1298,37.7958 481.2178,37.7818 481.3118,37.7718 L486.1368,37.2618 Z" id="Fill-31" sketch:type="MSShapeGroup"></path>
        </g>
    </g>
</svg>