<?xml version="1.0" encoding="UTF-8" standalone="no"?>
<svg width="998px" height="1021px" viewBox="0 0 998 1021" version="1.1" xmlns="http://www.w3.org/2000/svg" xmlns:xlink="http://www.w3.org/1999/xlink" xmlns:sketch="http://www.bohemiancoding.com/sketch/ns">
    <!-- Generator: Sketch 3.2.2 (9983) - http://www.bohemiancoding.com/sketch -->
    <title>Group</title>
    <desc>Created with Sketch.</desc>
    <defs></defs>
    <g id="Page-1" stroke="none" stroke-width="1" fill="none" fill-rule="evenodd" sketch:type="MSPage">
        <g id="Group" sketch:type="MSLayerGroup" fill="#006E3B">
            <path d="M487.48241,398.751079 C496.882355,402.746865 512.815124,405.121984 506.925601,419.110032 C503.34863,421.468384 501.163628,418.970319 497.947128,418.484118 C476.696042,415.304254 450.453835,419.612998 428.720275,419.730357 C425.875336,419.747122 421.045039,419.294453 417.096508,419.730357 C415.244247,420.445687 415.477166,423.625551 415.51044,426.55952 C402.993817,484.881243 396.3889,546.969624 384.332569,606.084916 C376.435506,609.482732 371.095006,596.288252 367.423759,588.687874 C364.667551,582.987591 361.839249,577.454963 360.552649,573.777721 C364.684188,564.718742 365.965242,557.682804 366.370078,548.316456 C368.604991,549.830943 367.301754,542.577053 369.536667,542.102029 C368.804636,541.72201 369.459027,539.710145 368.482986,539.615141 C372.398243,533.585135 371.560844,520.049756 375.348551,516.009261 C374.932624,512.371139 375.531558,507.335889 376.407777,502.965671 C376.956801,500.210534 378.559505,492.252492 379.579912,494.89027 C378.692602,490.173565 380.533771,484.830946 381.160434,479.985705 C382.319483,482.629072 381.354533,472.653576 384.332569,470.664066 C384.149561,469.691664 383.400893,471.21174 383.278888,470.043741 C383.190157,467.590383 384.088559,470.244927 384.864955,468.803091 C387.665529,450.578949 392.723199,441.056123 395.429495,420.350682 C362.227447,418.942377 329.774067,419.825362 299.256133,417.863793 L297.803162,408.206843 C297.376144,402.12654 303.914513,404.697257 309.299378,404.199879 C332.851925,402.031536 359.532242,396.163597 386.972318,400.477929 C390.748933,398.03016 388.11473,391.083639 390.149998,387.428751 C398.951009,385.081575 411.617366,390.094472 414.9836,399.852016 C437.210727,397.532783 458.256622,398.510772 479.979091,396.744802" id="Fill-1" sketch:type="MSShapeGroup"></path>
            <path d="M465.61908,408.206843 C465.192062,402.12654 469.379058,397.152764 474.786107,397.119233 C499.187144,396.962754 529.100598,400.321451 554.793782,400.477929 C558.564851,398.03016 555.930648,391.083639 557.965917,387.428751 C566.766927,385.081575 579.43883,390.094472 582.799518,399.852016 C605.032191,397.532783 626.07254,398.510772 647.795009,396.744802 C648.809871,395.107368 645.970477,392.704307 646.208942,389.915639 C650.784137,389.507678 652.392387,392.586949 654.66612,394.883827 C664.066065,398.879614 680.636588,405.121984 674.747065,419.110032 C671.170094,421.468384 668.979547,418.970319 665.763046,418.484118 C644.511961,415.304254 618.2753,419.612998 596.536193,419.730357 C593.691254,419.747122 588.860958,419.294453 584.912426,419.730357 C583.060166,420.445687 583.293085,423.625551 583.326359,426.55952 C570.815281,484.881243 564.210364,546.969624 552.148487,606.084916 C544.251424,609.482732 538.910924,596.288252 535.245223,588.687874 C532.483469,582.987591 529.655167,577.454963 528.374113,573.777721 C532.500106,564.718742 533.781161,557.682804 534.185996,548.316456 C536.420909,549.830943 535.117672,542.577053 537.352585,542.102029 C536.620554,541.72201 537.274946,539.710145 536.298904,539.615141 C540.214162,533.585135 539.376762,520.049756 543.164469,516.009261 C542.748542,512.371139 543.347477,507.335889 544.223696,502.965671 C544.772719,500.210534 546.375424,492.252492 547.395831,494.89027 C546.50852,490.173565 548.355235,484.830946 548.981898,479.985705 C550.135402,482.629072 549.170452,472.653576 552.148487,470.664066 C551.96548,469.691664 551.216811,471.21174 551.094806,470.043741 C551.006075,467.590383 551.904477,470.244927 552.680874,468.803091 C555.481447,450.578949 560.539117,441.056123 563.245414,420.350682 C530.043366,418.942377 497.589985,419.825362 467.077597,417.863793 L465.61908,408.206843 Z" id="Fill-3" sketch:type="MSShapeGroup"></path>
            <path d="M803.973224,147.656385 C818.153555,162.326232 822.262911,183.523462 833.337655,197.187377 C832.078783,178.477035 831.962324,162.342997 829.732956,144.079736 C821.797073,143.515297 809.818382,144.487698 803.973224,147.656385 L803.973224,147.656385 Z M814.792866,27.8330748 C810.389588,29.0569592 807.566832,35.3328594 804.366968,40.8096023 C798.898918,50.1927158 795.549321,58.1172275 791.950167,66.7738343 C787.602346,77.2355309 780.243215,90.9106225 774.958172,102.378251 C771.148283,110.632485 768.724816,118.763772 764.648734,126.023251 C773.300011,124.14551 780.875424,128.811919 789.404696,128.940454 C802.486979,129.130464 818.491842,123.474889 829.622042,124.151099 C826.766012,92.1345069 824.841657,56.3456688 814.792866,27.8330748 L814.792866,27.8330748 Z M842.011115,41.9328934 C847.135332,68.360972 853.080313,93.7663527 854.971393,124.877605 C863.589396,129.203115 878.113559,130.650539 875.046792,145.275678 C870.360684,148.12582 863.334294,147.667562 857.478045,146.030128 C858.742462,174.050932 860.123339,206.838739 862.652174,236.748461 C863.167923,242.845529 865.491568,247.098388 860.772185,251.15006 C842.000023,250.082654 837.707659,232.339124 826.244717,222.704528 C822.296185,219.384951 818.286651,217.540742 814.776229,213.695845 C813.988741,203.390626 803.795762,191.414443 806.06395,182.377817 C798.71591,172.10613 796.120527,158.291325 788.107004,150.411522 C774.963718,151.987483 765.264305,156.279461 751.106158,157.061852 C745.765658,166.282899 743.164729,177.437571 739.914955,188.620186 C736.731728,199.562495 732.844199,210.694813 731.064033,220.692663 C726.494384,223.403092 729.350414,231.15436 725.146781,232.585019 C722.240839,241.319865 724.13192,249.803228 717.055619,255.330267 C707.650128,255.805291 698.643927,258.454246 696.913671,252.748374 C696.004178,249.730577 698.915666,249.171726 700.19672,246.058924 C702.409451,240.688363 702.697826,232.46766 703.307852,227.99685 C704.267257,227.208869 704.644364,225.962631 706.174974,225.621732 C705.171204,219.111114 707.605762,211.303961 711.631934,208.079389 C710.367516,207.140519 710.661438,204.513917 710.406336,202.479699 C714.255045,203.524751 712.24196,199.964868 714.792977,199.981633 C708.570713,195.862899 717.615734,189.648473 715.036988,184.289088 C716.600872,183.143443 718.885697,180.371541 720.948694,181.662487 C721.536537,179.47179 719.146344,180.550373 717.78765,180.500077 C721.336892,172.022302 720.211117,166.685272 724.525664,159.995822 C719.345989,155.815614 714.77634,144.940367 715.580465,135.110173 C728.890122,135.238709 738.966642,132.299151 738.833545,119.63558 C740.048051,119.842355 739.665399,121.803923 741.994589,120.797991 C744.517878,118.95937 739.987049,118.439638 740.824448,115.908042 C745.493919,116.226587 740.447341,113.013192 742.754348,111.476351 C746.536509,108.531204 745.039173,105.038384 747.207537,100.416683 C748.366587,100.690521 749.215077,101.310845 750.374127,101.579094 C750.6015,100.042253 749.170712,100.327267 747.972843,100.35521 C757.827535,76.5704978 768.197976,51.9307434 782.306212,33.3992339 C782.522494,26.7321377 789.68198,25.5250189 788.689302,17.9078755 C793.103671,14.9794946 794.118532,9.38539293 799.292662,7.05498296 C807.794205,9.4133355 816.944594,7.39029375 824.170629,11.3804921 C831.241384,15.2924513 832.949456,24.0161203 837.275095,30.9346996 L842.011115,41.9328934 Z" id="Fill-5" sketch:type="MSShapeGroup"></path>
            <path d="M307.15756,139.466978 C307.091012,140.634977 306.963461,141.534728 307.002281,142.400947 C307.468119,152.242319 309.470113,161.502485 312.830801,170.31557 C314.605422,174.970802 317.03998,179.123067 320.289755,182.610299 C327.537972,190.378332 335.002472,192.703154 348.190123,186.712268 C353.6249,184.242145 358.743572,180.492253 363.701419,176.854131 C370.123329,172.137426 375.070085,165.822406 380.066752,159.75328 C383.322072,155.802202 385.645716,151.158147 388.363104,146.810284 C389.000859,145.787586 389.760618,144.731357 390.071177,143.641597 C391.673882,138.064261 394.346904,132.475748 392.98821,126.881646 C392.788565,126.060135 392.771928,125.115676 392.888388,124.215925 C393.648147,118.627412 391.801432,114.279549 388.562749,110.51848 C384.176108,105.416167 379.395723,100.878295 371.687213,99.4811663 L364.000887,96.6924982 C361.050579,93.8758876 356.508659,94.0994281 352.537945,93.3896869 C343.321007,91.7466641 334.153981,89.6733257 323.883362,91.1766357 C322.325023,93.2499741 320.711227,95.122126 319.441264,97.1675218 C317.505818,100.274735 315.858748,103.52725 314.012034,106.679171 C310.374061,112.904775 308.688171,119.488043 307.190834,126.082489 C306.741633,128.071999 305.959691,133.615804 307.107649,134.996167 L307.15756,139.466978 Z M211.461127,143.418057 C203.647249,144.183683 195.8611,145.904945 188.080496,147.939164 C185.801218,148.537135 183.505302,149.11834 181.248206,149.872789 C179.845146,150.336636 178.614003,151.281094 178.30899,152.851467 C177.693418,156.014565 177.027935,159.177664 176.617554,162.335173 C175.452959,171.204144 174.354913,180.067526 173.340051,188.930907 C172.425012,196.883362 171.349148,204.869347 170.933222,212.771504 C170.655937,217.935291 171.487791,222.959364 171.704073,228.067265 C171.970266,234.505232 172.114454,240.971142 172.314099,247.420286 C172.380647,249.650103 171.07741,251.382542 169.380428,253.114981 C167.117787,254.037085 164.971604,253.936492 162.880879,253.165277 C161.500002,252.656723 159.963846,252.461125 158.577423,251.974924 C157.174364,251.483135 155.654845,251.052819 154.556798,250.169834 C150.048152,246.520535 145.683693,242.714758 141.269324,238.964866 C140.642661,238.428368 140.032635,237.863928 139.239601,237.154187 C143.121584,232.694554 144.09208,228.067265 144.419276,223.249967 C145.029302,214.25246 145.833427,205.2326 146.521093,196.223917 C146.620915,194.882674 146.49891,192.703154 146.404633,191.361911 C146.204988,188.528535 146.526638,185.711924 147.402857,182.750012 C148.195891,180.067526 148.251348,177.295623 148.71164,174.56284 C149.404852,170.477637 150.092517,166.386845 150.924371,162.296054 C151.617582,158.870295 151.551034,155.9978 148.134888,154.578317 C146.787286,154.019466 145.711422,152.946471 144.56901,152.041132 C141.302598,149.459239 139.866264,145.776409 139.461429,141.462077 C139.300604,139.746403 139.893993,138.265447 141.40242,137.136568 C143.20477,135.784148 145.045939,134.577029 147.18103,135.555019 C149.066564,136.421238 150.613812,138.047495 153.297926,137.410405 C155.311012,135.772971 156.309236,133.772283 156.120683,131.307749 C155.915492,128.642028 156.736254,126.009838 157.50156,123.265878 C159.137538,117.425882 160.052577,111.513235 161.244901,105.628531 C164.006654,92.0205012 166.790591,78.4124717 169.480251,64.8044423 C170.057003,61.8704729 170.262193,58.930915 170.672574,55.751051 C169.247332,55.6616348 168.165922,55.337501 167.123332,55.5778071 C164.150842,56.2763712 161.189444,57.1817104 158.228045,58.0423414 C149.804141,60.4789331 141.396875,63.1111228 132.950788,65.2906429 C129.340544,66.2183361 125.491835,66.7939529 122.025778,66.4809962 C116.435722,65.97803 111.178408,64.4467774 109.681071,58.321767 C109.492518,57.5393752 109.7088,56.5949165 109.742074,55.6560463 C113.185948,52.9567944 116.884923,52.0346898 120.489622,51.9955702 C124.438153,51.9452736 128.242497,50.9561067 132.12448,49.8104615 C144.191903,46.2449902 156.264871,42.768935 168.337839,39.2537602 C169.668804,38.8681528 171.005316,38.4881339 172.624657,38.0242873 C173.062767,36.0291881 173.72825,34.2185099 173.794798,32.4860708 C173.97226,27.7526002 173.911257,23.0470721 173.93344,18.3359556 C173.938986,16.9555928 173.755978,15.6870003 172.280824,15.2007997 C171.909263,15.0778524 171.631979,14.6866565 171.387968,14.3625227 C168.615123,10.6126304 169.380428,7.29864213 174.077628,4.82293081 C176.806108,3.38109442 179.290577,1.45305739 182.479349,0.737727712 C191.130626,-1.20148635 201.173871,5.98534154 200.979772,16.40233 C200.913224,20.0013325 200.669213,23.6282775 200.602665,27.2216914 C200.569391,28.9820731 200.757945,30.7033351 200.824493,32.0222242 C202.926309,33.631716 205.089129,32.9443289 207.096669,32.8996208 C212.076699,32.7990276 217.084457,32.5698985 222.020121,32.7151999 C237.304044,33.1566924 252.565784,33.7267207 267.821978,34.2967491 C271.764964,34.4476389 275.364117,33.7267207 279.068638,30.9827608 C284.492324,26.9757969 290.343027,27.3949354 295.83326,28.0432029 C301.966794,28.7697096 307.911774,30.1388953 313.895574,31.3460141 C315.1489,31.5974972 316.280221,32.2625303 317.344993,32.9052093 C319.951468,34.469993 319.823917,37.3648428 316.951249,39.5164203 C315.598101,40.5335297 314.006488,41.4221033 312.45924,41.8747729 C307.2352,43.411614 302.055525,45.2390578 296.698388,45.6470192 C290.315298,46.1388084 283.815749,47.5694678 277.477025,47.7874198 C261.222607,48.3406826 245.228836,47.016205 228.95778,47.8824245 C225.131254,48.0891995 221.321364,47.7650657 217.533658,47.1950374 C211.793868,46.3399949 206.042987,47.9215441 200.109099,48.8268832 C199.615532,50.0060595 199.110874,50.849925 198.927867,51.7049675 C195.323168,68.30844 191.757289,84.917501 188.174773,101.520974 C186.555431,109.020758 184.869542,116.514954 183.305657,124.020327 C182.88973,126.00425 182.828728,127.999349 182.590263,130.134161 C185.623755,131.251863 188.673885,130.687424 191.557644,130.245931 C202.654571,128.535846 213.479758,128.74821 224.243943,129.128228 C232.080004,129.402066 239.832879,130.055922 247.596845,130.66507 C252.709972,131.061854 252.399413,139.293734 245.54494,141.03735 L211.461127,143.418057 Z M282.107677,120.985765 C282.97835,114.961348 283.544011,108.948108 284.90825,102.912513 C285.313086,101.113012 285.723467,99.2967453 286.316856,97.5195982 C287.725461,93.2723282 289.239435,89.0474122 290.642494,85.0236828 C289.716364,84.3362957 289.095247,83.8668606 288.257847,83.2465356 C291.685084,79.9325473 294.530023,77.9933333 298.583923,77.0544631 C308.183513,74.8358233 317.833014,73.1089728 327.377147,70.007348 C330.305272,69.0517123 333.322127,68.5487461 336.300163,68.0122488 C342.954992,66.80513 349.60982,65.7041929 356.264649,64.5753132 C362.819655,63.4576106 368.897731,64.6535524 375.003536,65.4918294 C378.896611,66.0283266 382.556767,67.3863353 386.244651,68.5487461 C390.232002,69.800573 393.503959,72.1701026 395.816512,75.4002632 C397.252846,77.4121279 399.082924,78.4851224 401.317837,79.2786913 C405.149909,80.6422885 409.065167,81.8605844 412.780779,83.4309565 C420.106636,86.5269928 425.164306,91.908731 427.781872,99.4308696 C430.587991,107.500683 430.000148,116.324945 428.597088,125.28892 C426.839104,136.477123 422.158542,146.877346 415.226429,156.690775 C409.25372,165.151784 402.848448,173.266305 395.128847,180.380482 C387.204055,187.679081 378.586052,193.748206 368.980917,198.135189 C357.795259,203.248678 346.687241,204.606687 335.817688,202.622765 C326.683936,200.957388 318.304398,197.811055 311.205914,192.406963 C308.721445,190.512457 305.904234,188.99797 303.525133,186.991693 C295.539339,180.257535 290.653586,171.287972 287.620093,161.055404 C286.294673,156.573416 285.019164,152.069075 283.721473,147.581499 C283.427551,146.569978 283.238998,145.496983 282.811979,144.563702 C282.290685,143.434822 281.603019,124.472997 282.107677,120.985765 L282.107677,120.985765 Z" id="Fill-7" sketch:type="MSShapeGroup"></path>
            <path d="M553.144976,27.5838271 C551.791827,27.5111764 550.69378,27.321167 549.601279,27.4217602 C544.382785,27.9135494 539.397209,29.3945054 534.483728,31.361662 C522.449579,36.1845488 512.705801,44.354955 502.296541,51.5529599 C501.941616,51.7988545 501.753063,52.2571126 501.436959,52.5700693 C495.087143,58.7341993 490.129296,65.7813144 485.947845,73.281099 C484.855344,75.2370786 483.701841,76.9471636 481.855126,78.411354 C479.342928,80.4064532 477.895503,83.0386429 477.407482,86.3861623 C478.960275,86.8611859 480.357789,87.3865061 481.816306,87.7274054 C486.541234,88.833931 491.587812,89.3089547 495.952271,91.0972789 C500.305638,92.8856031 504.758827,93.5450476 509.406116,94.0647793 C516.865069,94.8974678 524.229746,93.72388 531.550057,92.0361491 C533.446683,91.600245 535.332218,90.4825424 536.940468,89.3201317 C540.034964,87.0679609 542.990817,84.6313692 545.863484,82.1221268 C547.022533,81.1106059 548.1594,79.8084823 548.675149,78.4560622 C551.392537,71.3977701 553.921372,64.2835928 556.461298,57.1750041 C556.733037,56.4093778 556.705309,55.5375698 556.683126,54.7272354 C556.561121,50.7426255 556.39475,46.7580157 556.250562,42.7789943 C556.067554,37.7269784 555.851273,32.6861396 553.144976,27.5838271 M505.574044,129.076814 C506.860644,130.40688 507.975327,131.932544 509.472664,133.022304 C515.500829,137.426053 521.168525,142.176289 526.59221,147.217128 C537.295393,157.17027 547.444006,167.559316 556.688672,178.764284 C565.101484,188.968909 573.957952,198.843812 582.664686,208.836074 C584.178659,210.574101 585.720361,212.356837 587.56153,213.776319 C593.561967,218.409197 597.865423,224.277135 601.619855,230.525093 C600.843459,234.40911 599.196389,237.544266 594.83193,238.388131 C585.986554,236.879232 580.590597,231.341016 575.416468,225.456312 C568.329076,217.403264 561.064222,209.495518 553.960192,201.453648 C547.55492,194.205346 541.338201,186.806155 534.888563,179.591384 C530.96776,175.20999 527.024774,170.81183 522.643679,166.849574 C512.12905,157.332337 501.281679,148.139232 490.711593,138.672291 C485.82584,134.290897 481.106458,129.73067 476.647723,124.969257 C473.641958,121.76145 471.212946,118.061855 468.55656,114.563446 C467.813438,113.579867 467.175683,112.529227 466.327193,111.260634 C463.132875,113.781054 461.740907,116.156172 461.191883,118.922486 C460.39885,122.907096 459.705638,126.902883 459.006881,130.898669 C458.208302,135.503604 457.503999,140.114128 456.566778,144.713474 C455.490914,150.039327 456.017754,155.605486 456.278402,161.020755 C456.466955,164.994188 457.365357,168.889382 457.925472,172.823695 C458.06966,173.85757 458.213848,174.902622 458.213848,175.953262 C458.219393,188.007685 460.620677,199.698855 462.095831,211.529737 C462.661491,216.084375 463.914817,220.549597 466.282827,224.567738 C468.31255,228.004674 468.722931,231.586911 466.787485,235.599463 C459.711184,239.109049 453.278183,238.041643 447.527302,233.766431 C444.77664,231.726623 442.053706,229.725936 438.87048,228.250568 C437.312141,227.524061 435.864715,226.546072 434.522658,225.506608 C431.267338,222.9806 431.100967,221.773481 432.764675,217.436795 C433.219421,216.25203 433.45234,214.961084 433.518888,213.720434 C433.751807,209.478753 433.352518,205.320899 432.304382,201.241284 C431.267338,197.200789 430.612947,193.115586 431.245155,188.812431 C431.516894,186.957045 431.145333,185.051362 430.995599,183.17921 C430.474304,176.730066 429.869824,170.292098 431.367161,163.759127 C431.511348,163.155567 431.539077,162.445826 431.339432,161.892563 C430.385573,159.249197 431.417072,156.460528 431.156424,153.856281 C430.868048,150.978197 431.894001,148.452189 432.426387,145.769703 C432.919954,143.29958 433.369155,140.74563 433.224967,138.297861 C433.019776,134.927987 434.13446,132.077846 436.241822,129.797732 C436.563472,128.182652 434.45611,128.020585 435.282418,126.19873 C436.580109,123.320646 438.920391,120.878465 439.591419,117.782429 C439.68015,117.380056 439.657968,116.960918 439.691242,116.474717 C439.142218,115.742622 438.543284,114.937876 437.944349,114.138719 C440.073894,112.450988 442.746917,111.081802 440.650646,108.002531 C440.434364,107.683986 441.659962,106.633345 441.781967,105.890073 C442.159074,103.576429 441.987158,101.329846 440.240265,99.6980006 C441.732056,97.8034946 442.957653,96.2387109 444.466081,94.3218509 C443.49004,92.6229429 442.491815,90.8849154 441.360495,88.9177587 C444.344076,87.962123 445.85805,85.5870049 447.421934,83.2733605 C448.176148,82.1612464 448.730717,80.9988356 448.120691,79.6799465 C447.288838,77.8804453 448.397976,76.2597765 449.479385,74.9464759 C451.331646,72.6887166 452.096951,70.1235891 453.261546,67.6311122 C455.818109,62.1599579 458.801691,56.8452819 464.181011,53.05627 C465.062775,52.435945 466.332738,51.2120606 466.194096,50.5637931 C465.672801,48.0992588 468.6342,47.4286372 468.922576,45.9141502 C469.371777,43.5837402 471.52905,42.9745923 472.543912,41.4489282 C474.407264,38.6658486 476.453623,36.1566062 479.248651,34.1615071 C480.16369,33.5132395 480.92345,32.5911349 481.916128,32.1161113 C485.90348,30.1936627 489.053432,27.4385258 491.732,24.0910064 C492.408575,23.2471409 493.367979,22.5206342 494.327383,21.9506059 C504.109981,16.1329637 513.936945,10.3879722 525.405432,8.392873 C539.88523,5.87245358 552.634772,8.62759055 563.365683,17.3792021 C565.656053,19.2457655 568.123885,21.0005586 570.04824,23.1800788 C573.885858,27.5223535 575.793575,32.8202639 576.780708,38.4590737 C576.99699,39.682958 576.869439,41.0744978 577.4351,42.1139612 C579.586827,46.0929826 579.769835,50.5414391 580.235673,54.8837138 C580.884519,60.9248965 581.156258,67.0275528 581.57773,73.1022666 C581.622096,73.7337686 581.699735,74.3764476 581.594367,74.9967725 C580.097031,83.8210348 579.20972,92.7458902 574.850808,101.083952 C574.041137,102.63197 573.198192,104.196754 572.649169,105.823011 C570.037149,113.618987 564.380544,119.201911 557.459523,123.907439 C553.915827,126.3105 550.727055,129.160642 546.47351,130.59689 C541.682034,132.217558 537.007017,133.927644 531.93271,132.765233 C530.662747,132.47463 529.248596,132.642285 527.906539,132.552869 C522.150112,132.150496 516.304954,132.161673 511.258376,129.16623 C509.888591,128.355896 507.95869,128.327953 506.289438,127.942346 C506.050973,128.322365 505.812508,128.696795 505.574044,129.076814" id="Fill-9" sketch:type="MSShapeGroup"></path>
            <path d="M733.043362,396.712948 C736.287591,396.712948 739.431997,396.701771 742.570858,396.712948 C750.257185,396.752067 757.937966,396.830307 765.629839,396.841484 C772.883602,396.847072 780.137365,396.098211 787.407765,394.829619 C796.907532,393.16983 806.429483,391.74476 815.92925,390.073794 C820.437897,389.280225 824.913269,388.073107 829.421915,387.201298 C832.094938,386.681567 833.253987,387.804858 832.815878,390.280569 C832.200306,393.778978 830.686333,397.003551 828.590062,400.04929 C827.386647,401.804083 825.96695,403.184446 823.804131,403.81036 C822.478711,404.195967 821.147745,404.721287 819.94433,405.414263 C815.152854,408.186165 810.017544,409.125035 804.738047,409.667121 C789.703681,411.198374 774.819048,410.974833 759.912232,410.796001 C752.913571,410.712173 745.87609,410.952479 738.8497,411.215139 C736.620332,411.298967 734.363236,411.919292 731.695759,412.360785 C731.085733,416.62482 730.492344,420.687669 729.926684,424.750518 C728.756543,433.177996 727.5254,441.599885 726.471719,450.027363 C725.695322,456.286498 725.101933,462.540044 725.268304,468.788002 C725.345944,471.772268 724.824649,474.829184 724.447542,477.85257 C723.593506,484.754384 722.645193,491.650609 721.780065,498.546834 C721.674697,499.379523 721.82443,500.2178 721.874342,501.41933 C723.427135,501.654047 724.885651,501.961416 726.377442,502.089951 C736.426233,502.928228 746.51939,503.55973 756.529361,504.593605 C764.054863,505.36482 771.014704,504.034754 777.275788,499.111274 C779.078138,497.69738 780.525563,495.853171 782.083902,494.16544 C783.181949,492.980675 784.063714,491.589135 785.283765,490.55526 C786.392903,489.605213 787.85142,489.376084 789.004924,490.365251 C794.134687,494.735468 797.195908,500.346335 798.865161,506.817834 C799.364273,508.751459 798.515783,510.47831 797.05172,511.523362 C794.068139,513.652585 791.156652,515.787397 787.296851,516.64244 C777.480979,518.805194 767.89248,519.330514 758.226342,518.039568 C752.059534,517.212468 745.665353,517.329827 739.365449,517.067167 C735.544468,516.910688 731.723488,516.726267 727.88587,516.765387 C725.434675,516.79333 722.950205,517.195702 720.327094,517.447186 C719.93335,518.827548 719.439783,519.861423 719.384327,520.878533 C718.907397,529.943101 716.877675,539.046789 717.410061,548.083415 C717.459972,548.92728 717.16605,549.810265 717.066228,550.676485 C715.485706,564.52482 713.838636,578.373156 712.357937,592.221491 C711.642543,598.933296 712.075107,605.516564 713.672265,612.161306 C715.091962,612.362493 716.384108,612.803985 717.665163,612.681038 C724.242351,612.060713 730.830632,611.434799 737.396729,610.523872 C741.001428,610.020906 744.578398,608.987031 748.160914,608.1264 C751.10013,607.416658 753.917341,606.511319 756.04134,604.007665 C756.900922,602.996145 758.193068,602.22493 759.402028,601.554308 C763.943949,599.033889 767.992303,595.960207 771.364083,592.048247 C772.101659,591.187616 773.033335,590.371693 774.03156,589.829608 C775.517805,589.019273 777.153783,588.795733 778.501386,589.818431 C779.682618,590.712593 780.741845,591.752056 781.873166,592.707692 C782.671745,593.383902 783.370502,594.428954 784.329907,594.624552 C788.283984,595.418121 790.158427,598.760052 793.203011,600.671323 C797.822571,603.566173 797.029538,609.59059 792.210333,613.301363 C791.112286,614.145228 789.864506,614.838204 788.627817,615.486471 C781.179955,619.404019 773.598996,622.829778 765.263823,624.042485 C761.886498,624.534274 758.531355,625.495498 755.192849,626.389661 C749.830167,627.831497 744.47303,628.982731 738.971705,629.223037 C734.219048,629.429812 729.444209,630.195438 724.680461,630.513983 C720.160723,630.821351 715.624348,631.022538 711.126794,630.994595 C707.261447,630.972241 703.584655,630.122787 700.196238,628.563592 C693.70778,625.573738 687.579792,622.064151 681.851094,617.967771 C674.336684,612.591622 672.772799,604.717407 673.693384,595.982561 C674.037216,592.746812 674.735973,589.539005 674.425415,586.308844 C674.314501,585.090549 674.630605,583.788425 674.841341,582.525421 C675.052078,581.25124 675.845111,579.854112 675.584464,578.741998 C674.314501,573.360259 676.538323,568.067938 677.309174,562.742084 C677.397905,562.110583 678.096662,561.328191 677.908108,560.892287 C675.401456,555.096999 679.971105,549.050227 678.88415,543.154346 C678.44604,540.745697 679.16698,538.113507 680.547857,535.565145 C681.579355,533.670639 681.557172,531.329052 682.034102,529.19424 C682.511031,527.059428 682.971324,524.930205 683.520347,522.80657 C684.740399,518.078688 684.923407,513.730824 680.309392,510.908625 C679.77146,510.584491 679.338896,510.092702 678.92297,509.628856 C677.630824,508.181431 677.908108,506.460169 679.777006,505.158045 C681.673632,503.833568 683.675626,502.648803 685.644346,501.396976 C685.893902,500.418986 686.35974,499.524824 686.276555,498.731255 C685.616618,492.617422 688.450466,486.822134 689.709337,480.887133 C689.97553,479.635306 690.835112,478.495249 690.147447,477.159594 C688.383917,473.722659 689.73152,470.039829 690.641013,466.46318 C691.461775,463.266551 692.454454,460.164926 691.8167,456.890057 C691.506141,455.280565 691.877702,453.430768 692.238172,451.720683 C693.779874,444.461204 693.918516,437.140252 695.532312,429.89195 C696.685816,424.700222 696.60263,419.55879 696.652542,414.490008 C693.818694,411.991943 689.859071,412.316076 686.747939,410.891006 C683.830906,409.56094 680.991512,408.085572 677.531001,406.386664 C678.717779,405.458971 679.294531,404.698933 679.965559,404.542455 C682.649673,403.916541 685.35597,403.447106 688.056722,402.98326 C690.313818,402.597652 692.582005,402.346169 694.839101,401.938208 C695.704229,401.776141 696.541628,401.351414 697.695131,400.943452 C697.412301,396.645886 698.266338,392.163898 693.790965,389.598771 C693.264125,389.296991 692.953566,388.665489 692.593096,388.151346 C691.112397,386.033299 691.384136,384.138793 693.513681,382.389589 C694.400991,381.663082 695.382579,380.925398 696.430714,380.500671 C702.05959,378.231735 707.68292,376.214282 713.70554,377.544348 C717.587523,378.39939 721.452869,379.097954 724.946654,380.947752 C728.24634,382.691368 730.081963,385.27885 730.592167,388.816379 C730.952637,391.342387 731.074642,393.913103 733.043362,396.712948" id="Fill-11" sketch:type="MSShapeGroup"></path>
            <path d="M441.177002,790.600269 C444.188312,790.600269 447.105346,790.589092 450.022379,790.600269 C457.154136,790.633801 464.285894,790.706451 471.423198,790.71204 C478.155666,790.723217 484.871497,790.019064 491.587328,788.834299 C500.371702,787.29187 509.172712,785.956215 517.95154,784.39702 C522.121899,783.659336 526.247893,782.536045 530.412706,781.720122 C532.886084,781.233921 533.984131,782.284562 533.634753,784.592618 C533.141186,787.850721 531.804675,790.851753 529.930231,793.696306 C528.848822,795.33374 527.562222,796.61351 525.565773,797.200303 C524.351267,797.557968 523.120124,798.049757 522.022077,798.698025 C517.635436,801.279918 512.893871,802.157315 508.002572,802.660281 C494.088434,804.09094 480.263028,803.884165 466.426531,803.71651 C459.932527,803.638271 453.40525,803.8674 446.889064,804.113294 C444.820521,804.191533 442.735341,804.772739 440.273055,805.186289 C439.801671,809.154133 439.341379,812.943145 438.908815,816.732157 C438.010413,824.578429 437.051009,832.43029 436.263521,840.282151 C435.681223,846.116559 435.270842,851.945378 435.559218,857.768609 C435.69786,860.5461 435.281934,863.40183 434.999103,866.212852 C434.361349,872.645231 433.634864,879.072021 432.980472,885.5044 C432.902832,886.281203 433.063657,887.058006 433.135751,888.181297 C434.577631,888.399249 435.941871,888.684263 437.333839,888.801622 C446.678327,889.578426 456.05609,890.170808 465.367304,891.126444 C472.371511,891.85295 478.798966,890.606712 484.505481,886.018543 C486.14146,884.705242 487.444697,882.98398 488.853303,881.408019 C489.845981,880.307082 490.633469,879.004959 491.742607,878.043734 C492.757469,877.160749 494.099526,876.948386 495.192027,877.864902 C500.055597,881.938928 503.022542,887.169776 504.713977,893.199782 C505.218635,894.999283 504.469967,896.608775 503.133455,897.581176 C500.410521,899.565099 497.759681,901.554609 494.188257,902.353767 C485.126599,904.37122 476.242403,904.863009 467.241747,903.661479 C461.501958,902.890264 455.568069,903.002034 449.717366,902.75614 C446.168124,902.610838 442.618882,902.443183 439.053003,902.482302 C436.77927,902.504656 434.4889,902.884675 432.054342,903.113804 C431.7216,904.399162 431.283491,905.365975 431.255762,906.316022 C431.017298,914.760266 429.331408,923.243629 430.030165,931.665518 C430.096713,932.44791 429.841611,933.27501 429.769517,934.079756 C428.604922,946.989221 427.390416,959.893098 426.320098,972.796975 C425.804349,979.056109 426.353372,985.192297 427.983805,991.384369 C429.303679,991.56879 430.51264,991.976752 431.699418,991.864981 C437.794131,991.283776 443.888845,990.702571 449.961376,989.853117 C453.299882,989.383682 456.599567,988.416869 459.899253,987.612123 C462.611096,986.952678 465.206479,986.108813 467.119742,983.772814 C467.896139,982.828356 469.082917,982.113026 470.192055,981.487113 C474.351322,979.139937 478.033661,976.278618 481.078245,972.629319 C481.743728,971.830162 482.586673,971.064536 483.501711,970.561569 C484.865951,969.80712 486.379925,969.594757 487.655434,970.550392 C488.770117,971.383081 489.773887,972.349894 490.844206,973.238467 C491.603965,973.869969 492.274994,974.847959 493.173396,975.026791 C496.855734,975.764475 498.67472,978.882865 501.536297,980.660013 C505.889664,983.359264 505.290729,988.970132 500.898542,992.429421 C499.900318,993.217402 498.757906,993.860081 497.626585,994.469229 C490.79984,998.118528 483.839999,1001.31516 476.125943,1002.44404 C473.00372,1002.90229 469.909224,1003.80205 466.836912,1004.63473 C461.88461,1005.97598 456.9434,1007.04897 451.841365,1007.27251 C447.438087,1007.46811 443.018172,1008.18344 438.609348,1008.48522 C434.416806,1008.77023 430.213173,1008.95465 426.037268,1008.9323 C422.449206,1008.90995 419.016424,1008.12197 415.844289,1006.66895 C409.749575,1003.88587 403.987603,1000.61659 398.580555,996.799639 C391.487617,991.792331 389.857184,984.449025 390.517121,976.312149 C390.761131,973.294352 391.343429,970.310086 390.988505,967.292289 C390.849862,966.157821 391.116055,964.945114 391.282426,963.771526 C391.454343,962.581173 392.1531,961.279049 391.886906,960.245174 C390.594761,955.226689 392.535752,950.297621 393.134687,945.335021 C393.206781,944.748227 393.838989,944.010543 393.655982,943.608171 C391.193695,938.209667 395.303052,932.576446 394.166185,927.077349 C393.700347,924.836355 394.310373,922.382998 395.541516,920.00788 C396.456555,918.241909 396.384461,916.062389 396.778205,914.06729 C397.171949,912.083368 397.549056,910.093857 398.014894,908.115524 C399.046393,903.711775 399.118487,899.654515 394.770665,897.027914 C394.266008,896.726134 393.850081,896.267876 393.456337,895.83756 C392.225193,894.490729 392.441475,892.886825 394.149548,891.668529 C395.879803,890.433468 397.709881,889.332531 399.512231,888.164532 C399.717421,887.248016 400.133348,886.415327 400.039071,885.683232 C399.290403,879.982949 401.791509,874.578856 402.828553,869.051817 C403.044835,867.883818 403.821232,866.822 403.150204,865.575762 C401.436585,862.373544 402.606726,858.942197 403.372031,855.611443 C404.059697,852.627177 404.913733,849.737915 404.253796,846.686587 C403.9266,845.188866 404.231613,843.462015 404.53108,841.869289 C405.795498,835.107188 405.767769,828.283614 407.098735,821.527101 C408.05814,816.687449 407.86404,811.898093 407.797492,807.175799 C405.113378,804.845389 401.442131,805.147169 398.525098,803.822692 C395.785527,802.582042 393.11805,801.207267 389.873821,799.625718 C390.95523,798.759499 391.47098,798.049757 392.092097,797.904456 C394.565475,797.323251 397.066581,796.881758 399.567688,796.451443 C401.652867,796.088189 403.749138,795.853472 405.834318,795.473453 C406.632897,795.328152 407.403748,794.931367 408.462975,794.54576 C408.108051,790.544384 408.795716,786.369765 404.586537,783.977881 C404.092971,783.698456 403.787958,783.106073 403.444125,782.63105 C402.024428,780.652716 402.229619,778.892334 404.170611,777.260489 C404.980281,776.57869 405.873138,775.891303 406.838088,775.500107 C412.006671,773.382061 417.186346,771.50432 422.80413,772.739382 C426.425466,773.538539 430.030165,774.186806 433.313214,775.908068 C436.413254,777.534326 438.176784,779.942975 438.725807,783.240198 C439.114006,785.592962 439.285922,787.990434 441.177002,790.600269" id="Fill-13" sketch:type="MSShapeGroup"></path>
            <path d="M360.420661,399.023798 C359.68863,401.259203 357.875189,403.494609 356.03402,405.154397 C353.233446,407.669228 350.116768,409.904633 346.905814,411.821493 C344.70972,413.134794 342.158703,413.878066 339.707508,414.554276 C330.551573,417.091461 318.900077,415.800514 309.838419,418.728895 C291.304722,422.814098 288.426509,423.479131 277.629049,423.965332 C263.548542,424.596834 251.630853,427.256966 237.533708,429.570611 C236.640852,429.715912 235.759087,429.995338 234.705406,430.257998 C232.725594,434.577919 230.851151,439.076672 230.607141,443.491597 C230.224488,450.426942 228.205857,457.066095 226.597607,463.794665 C224.013315,474.641969 222.149963,485.511627 221.495571,496.465113 C221.473389,496.884251 221.72849,497.292213 222.005775,498.208729 C224.05768,498.884939 226.564332,498.298145 228.965616,498.141667 C235.315432,497.728117 241.715159,496.794835 248.020609,496.806012 C256.422329,496.828366 264.774139,495.699487 273.170314,494.59855 C280.962009,493.575852 287.722206,489.948907 294.255029,485.472508 C296.179384,484.153619 297.820908,482.219993 300.771215,482.253524 C302.573565,483.818308 302.29628,486.338727 302.495925,488.758553 C302.723298,491.608695 301.192688,494.620904 302.678933,497.398395 C303.039403,498.074605 302.107727,499.505264 301.830442,500.595024 C300.139007,507.273297 296.772773,512.202366 289.269454,512.850633 C284.954906,514.991034 280.435169,515.589005 275.882157,515.885196 C265.672541,516.555818 255.424105,517.639989 245.269946,517.690286 C238.027274,517.729405 230.790149,518.187664 223.541931,518.545328 C221.778402,518.629156 220.003781,519.009175 217.974058,519.288601 C217.613588,520.652198 217.208753,521.725192 217.075656,522.809364 C215.750236,533.505778 214.446999,544.196604 213.182582,554.893018 C212.073443,564.28172 213.071668,573.463647 213.215856,582.729402 C213.24913,584.908922 214.186352,586.987849 214.796377,589.485914 C218.711635,588.882355 222.288605,588.424097 225.848938,587.753475 C229.464729,587.066088 233.080519,586.261342 236.663035,585.32806 C240.273279,584.38919 243.828067,583.277076 244.743106,578.694495 C244.887293,577.979166 245.879972,577.207951 246.62864,576.732927 C250.033694,574.575761 253.477568,572.485657 256.932533,570.429084 C260.099122,568.545755 261.407905,568.67988 264.230662,570.831457 C269.033229,574.486345 273.869071,578.090936 278.671639,581.745823 C280.213341,582.913823 281.838228,584.025937 283.158103,585.428654 C285.581569,587.99937 286.180504,591.536898 284.53898,594.767059 C282.803179,598.187229 280.340892,601.165907 276.298084,603.004527 C269.116415,606.268219 261.729555,607.687701 254.309421,609.353078 C250.03924,610.314303 245.791241,611.543775 241.565425,612.806779 C236.430116,614.349209 231.305898,615.852519 226.031946,616.159887 C224.89508,616.226949 223.630662,616.087237 222.643529,616.567849 C217.802142,618.926201 213.881339,617.01493 209.705434,615.550739 C203.21143,613.265037 199.002251,608.436562 194.942806,603.395723 C193.04618,601.048548 191.543298,598.366061 189.657763,596.007709 C184.749827,589.849167 183.48541,582.148196 182.220992,574.441637 C181.899342,572.47448 181.744063,570.468204 181.572146,568.467516 C180.973212,561.532171 181.00094,554.574473 182.132261,547.488238 C182.964115,542.285332 183.33013,537.048895 183.879154,531.823636 C184.267352,528.185514 184.433723,524.530626 185.032657,520.909269 C185.470767,518.27708 184.860741,516.505521 182.636919,515.371053 C180.11363,514.080106 177.645798,512.75004 175.799083,510.525812 C173.037329,507.200647 173.059512,506.155595 176.642028,501.472421 C180.39646,501.444478 183.402224,503.679883 187.245388,501.7742 C187.578129,500.880038 188.165972,499.829398 188.337889,498.745226 C188.99228,494.660023 189.59676,490.569232 190.040416,486.47844 C190.284426,484.203915 190.328791,481.996452 191.36029,479.74987 C192.020227,478.313622 192.563705,476.307346 192.08123,475.061108 C190.622713,471.29445 192.718984,468.064289 193.955673,464.660885 C194.903986,462.056638 196.040853,459.592103 195.769114,456.691665 C195.569469,454.551264 196.523328,452.187323 196.978074,449.923976 C197.477186,447.431499 197.981844,444.94461 198.497593,442.457722 C199.146439,439.316978 199.118711,436.131525 200.632684,433.035489 C201.298167,431.683069 201.031974,429.945041 201.220527,428.017004 C196.634241,426.625464 192.957449,424.026806 189.441481,421.204607 C187.051288,419.293335 185.049294,417.046753 184.206349,413.922774 C183.590778,411.665015 185.05484,409.736978 187.483852,409.815217 C188.825909,409.854336 190.106964,410.334949 191.443475,410.379657 C195.25891,410.508192 199.079891,410.597609 202.911963,410.530547 C204.315023,410.508192 204.908412,409.016059 204.276203,407.546281 C202.9286,404.411125 203.677268,402.354552 206.716307,400.996543 C210.093632,399.487645 213.498686,399.303224 216.632001,400.599759 C219.443666,401.762169 222.177691,403.181652 224.689889,404.835852 C226.775069,406.210626 228.943434,406.931544 231.516634,406.858893 C235.13797,406.752712 238.759306,406.925956 242.386187,406.585056 C256.233776,405.288521 270.081365,403.991986 283.923408,402.337786 C288.39878,401.801289 293.012795,401.588926 297.371707,399.537941 C297.787634,399.342343 298.264563,399.269693 298.713764,399.213807 C309.594409,397.883741 314.213969,400.163855 325.100159,398.749961 L360.420661,399.023798 Z" id="Fill-15" sketch:type="MSShapeGroup"></path>
            <path d="M872.885154,479.597304 C875.059065,479.021687 876.439942,478.85962 877.610083,478.317534 C891.518674,471.90751 900.131131,461.546406 908.31657,451.218834 C913.418605,444.780867 916.890208,437.649924 920.92747,430.78723 C922.058791,428.859193 922.602269,426.780266 924.33807,422.505054 C920.295261,425.232248 918.376453,426.215826 916.962302,427.529127 C901.451006,441.936314 887.348315,457.109127 874.853874,473.103452 C873.511817,474.824714 873.589457,477.127181 872.885154,479.597304 M997.751919,603.019616 C996.91452,604.707347 996.171397,606.210657 995.51146,607.535135 C985.423849,612.508912 977.975987,608.474005 970.666767,604.841472 C965.004617,602.024861 959.880399,598.358796 954.567628,595.005689 C953.330939,594.228885 952.238438,593.250895 951.162574,592.278494 C945.921897,587.550612 940.786587,582.705371 935.46827,578.061317 C922.469172,566.699869 909.420163,555.38313 896.315696,544.127865 C891.901327,540.338853 887.248492,536.806913 882.717663,533.146437 C878.830134,530.005692 874.986971,526.803474 871.055077,523.713026 C869.280456,522.321487 867.339464,521.131133 865.082368,519.577527 C864.034233,521.192607 862.89182,522.304721 862.64781,523.450366 C861.466578,528.932698 859.542223,534.264139 857.634506,539.657054 C855.577055,545.452343 854.296,551.426463 853.092585,557.33911 C851.195959,566.677515 849.249422,575.937682 845.422896,585.11402 C841.812651,593.787393 840.442866,602.717837 839.372547,611.603573 C838.768067,616.638823 836.754982,620.975509 831.980142,624.239201 C827.255214,627.469361 822.802025,628.307638 818.432021,625.949286 C817.345065,625.362492 816.280293,624.73099 815.148972,624.088311 C815.248794,623.03767 815.021421,621.998207 815.465076,621.294054 C817.677807,617.784468 817.78872,614.163112 818.199102,610.552932 C819.103049,602.606066 819.957085,594.659201 820.83885,586.712335 C820.91649,586.030536 820.944218,585.326384 821.171592,584.661351 C823.034944,579.240493 822.907393,573.836401 823.883434,568.421132 C824.371455,565.716291 824.027622,563.011451 825.57487,560.301022 C825.996342,559.55775 825.940885,558.473578 825.796697,557.646478 C825.186671,554.097772 826.090619,550.482004 826.911381,546.821528 C828.286712,540.696518 829.423579,534.554742 830.771182,528.429732 C831.220383,526.401101 831.80268,524.322174 832.723265,522.394137 C833.671578,520.415804 834.869447,518.756015 833.793583,516.63238 C833.327745,515.721453 833.88786,513.910774 834.464611,512.658947 C836.682888,507.858415 835.523838,504.421479 832.634534,501.152199 C829.628769,497.754383 826.362358,494.485103 824.548917,490.114886 C823.578421,487.773299 822.680019,485.387003 821.825983,482.983943 C821.44333,481.916537 821.698432,480.804423 822.685565,479.804079 C823.705972,478.775792 824.682014,478.759027 825.813334,479.133457 C828.258984,479.94938 830.904278,480.390873 833.211285,481.430336 C836.472151,482.900115 839.954845,482.933646 843.659366,482.151254 C847.26961,478.641668 850.086821,474.87501 852.233003,470.359492 C854.12963,466.369293 856.375634,461.98231 861.411121,460.21634 C860.479445,455.108439 864.000958,451.559733 866.901354,448.03897 C868.775798,445.758857 870.99962,443.808466 872.081029,441.008621 C872.402679,440.192698 873.112528,439.192354 873.85565,438.789981 C876.489853,437.370499 877.499169,434.783017 878.979868,432.620262 C882.335011,427.719136 885.967438,423.11979 890.758914,419.453725 C891.346758,419.006644 892.16752,418.626626 892.461441,418.056597 C895.367383,412.479261 901.035079,409.958842 905.521542,406.220126 C907.861824,404.269735 911.094961,402.962023 913.984266,402.302579 C920.860922,400.732206 927.798581,399.636858 934.508866,400.273948 C937.109795,400.519843 939.732906,401.179288 941.923454,402.313756 C945.289688,404.046195 947.014398,407.086346 946.448737,411.423032 C946.182544,413.457251 946.016173,415.508235 946.060539,417.508923 C946.22691,424.963999 944.54102,432.435841 942.41702,439.907684 C940.420572,446.915679 938.435215,453.923674 936.26685,460.909316 C935.501544,463.357085 934.281493,465.760145 933.133535,468.129675 C929.124001,476.389497 924.227156,484.252535 918.504003,491.64055 C915.464965,495.558097 911.32788,498.430593 907.096518,500.973367 C900.375142,505.008273 893.731405,509.249954 886.422185,511.809494 C885.773339,512.038623 885.185496,512.558354 884.292639,513.111617 C884.359188,514.816114 885.767793,515.447616 886.804837,516.263538 C897.923946,525.037504 909.176152,533.66058 920.20653,542.540727 C930.915259,551.163803 941.202514,560.278668 952.060976,568.717323 C962.087584,576.513299 971.992187,584.488107 983.455129,590.512524 C989.017457,593.435316 994.491053,596.682242 997.751919,603.019616" id="Fill-17" sketch:type="MSShapeGroup"></path>
            <path d="M869.31643,14.8034564 C867.902279,15.6864415 866.255209,16.3570631 865.123888,17.4915312 C862.606145,20.0175392 859.922031,18.5701143 857.376559,19.4866304 C856.89963,17.0053306 850.999015,18.251569 853.616581,13.4566248 C853.988142,12.7804147 852.646085,11.4782911 852.036059,10.3494114 C848.958201,11.020033 846.129899,10.9920905 843.540061,10.1146939 C842.209096,9.66202433 841.671164,8.56667576 842.153639,7.13042789 C842.64166,5.67741447 842.918944,4.11821931 844.560468,3.0508133 C845.7417,2.285187 846.778745,1.29043166 848.209533,0.128020929 C855.036278,0.0944898505 861.829748,0.586279006 867.270071,4.56530036 C868.662039,5.58240975 870.542028,6.0294908 872.166915,6.72805494 C872.388743,9.63408177 868.95596,10.148225 867.985465,12.6798214 C868.268295,13.2610268 868.689767,14.1272463 869.11124,14.9878774 L869.31643,14.8034564 Z" id="Fill-19" sketch:type="MSShapeGroup"></path>
            <path d="M415.766024,65.0011579 C417.196812,65.2023444 418.627601,65.4035309 420.285762,65.6326599 C420.258034,66.8565443 420.235851,67.9630699 420.213668,69.1254806 C415.250275,69.0807725 415.250275,69.0807725 416.043309,64.7720289 C416.0544,64.7608519 415.766024,65.0011579 415.766024,65.0011579" id="Fill-21" sketch:type="MSShapeGroup"></path>
            <path d="M385.820405,50.4654353 C386.979455,49.6551009 387.650483,49.1577232 388.360332,48.7385847 C388.393606,48.7162307 388.959266,49.3589097 388.876081,49.6271583 C388.687527,50.1860096 388.315966,50.9460474 387.866765,51.1639994 C387.489658,51.3428318 386.890724,50.8678082 385.820405,50.4654353" id="Fill-23" sketch:type="MSShapeGroup"></path>
            <path d="M303.201335,809.10719 C300.10684,815.215434 297.400543,821.519277 294.250591,827.59958 C287.617945,840.41404 277.375055,853.764998 273.060508,867.417736 C270.282117,876.202878 260.527247,915.629838 258.735989,921.52572 C257.166559,926.689506 253.689411,930.735589 250.256629,934.569309 C247.505966,937.642992 243.557435,936.877365 240.096924,936.547643 C238.688319,936.413519 237.268622,935.73172 236.081844,934.94374 C231.02972,931.590632 231.268185,927.935744 226.138421,924.722349 C221.474496,921.799557 219.211854,917.099617 218.291269,911.857592 C216.976941,904.357807 216.317004,896.656836 215.8068,888.972631 C215.48515,884.08827 216.111813,879.064197 215.995354,874.135128 C215.934351,871.698537 215.274414,869.301065 214.669934,866.959478 C213.510884,862.494256 214.886216,857.7049 214.126456,853.262032 C213.322331,848.573269 213.499793,844.040985 214.664388,839.279572 C215.074769,837.614195 214.165276,835.719689 213.948994,833.914599 C213.222508,827.845474 212.579208,821.753995 211.808357,815.696047 C211.658624,814.528047 211.076326,813.455053 210.388661,811.4376 C209.174154,813.656239 208.297935,815.08131 207.588087,816.58462 C205.769101,820.451871 203.872474,824.296768 202.30859,828.259024 C201.082992,831.360649 200.234502,834.613164 199.347191,837.82097 C196.973636,846.382572 194.455892,854.84917 191.2283,863.226351 C188.69392,869.809619 188.039528,877.069098 186.697471,884.049151 C182.227645,907.24148 181.14069,930.54558 179.4548,953.816149 C178.606309,965.496141 178.817045,977.176134 177.913098,988.861714 C177.641359,992.332181 175.373172,995.886476 173.71501,999.261937 C172.284222,1002.16796 170.121403,1004.42014 166.971451,1005.47078 C163.355661,1006.68348 158.192623,1005.52666 156.351454,1002.36915 C154.277365,998.820445 152.663569,994.953194 150.65603,990.812106 C151.842807,990.426498 152.591476,990.186192 153.439966,989.906766 C153.157136,984.122655 152.841032,978.305013 152.58593,972.481782 C152.408468,968.31834 152.103455,964.154898 152.247643,959.97469 C152.341919,957.236319 153.19041,954.475593 153.617428,951.714868 C154.621198,945.248958 153.789345,938.933938 153.5897,932.568622 C153.578608,932.104775 153.456603,931.579455 153.634065,931.188259 C156.933751,923.805833 155.253407,916.093685 156.76738,908.543604 C158.619641,899.31138 159.401583,889.933855 160.89892,880.640158 C161.669771,875.884333 162.889823,871.150862 164.120966,866.456511 C164.47589,865.115268 165.573937,863.924915 166.705258,862.047174 C164.825268,858.11845 166.355879,853.60852 168.884714,849.176829 C170.648243,846.097558 169.833027,842.845043 170.149131,839.670768 C170.254499,838.620127 170.143586,837.474482 170.53733,836.524435 C172.849882,830.935922 175.134707,825.358586 175.855647,819.345346 C175.96656,818.462361 176.487855,817.529079 177.00915,816.757864 C179.066601,813.695359 180.103645,810.42049 180.885588,806.815899 C182.771123,798.097819 186.575466,790.033594 192.187705,782.986479 C193.546399,781.276394 195.825678,780.01339 197.866492,779.281295 C204.931701,776.738521 212.224284,775.196092 219.46141,775.346982 C223.326756,775.425221 226.265972,778.280951 228.007319,781.958193 C230.308781,786.814611 232.79325,791.587201 234.700967,796.639217 C236.852695,802.356266 239.270616,807.944779 240.579399,814.10332 C242.365111,822.530798 242.814312,831.159462 243.341153,839.804892 C243.740443,846.293156 244.306103,852.753477 244.871763,860.191788 C248.182541,852.546702 251.02748,845.795778 254.016607,839.106328 C257.710037,830.846506 261.292553,822.541975 265.124625,814.332449 C268.612864,806.871784 272.849771,800.204688 278.456464,794.375869 C285.876598,786.652544 294.699792,783.629158 304.521209,784.277426 C307.310691,784.461847 305.025867,784.56244 307.782075,784.93687 C315.93424,786.054573 321.857037,790.709804 326.554237,797.253953 C332.776502,805.916149 335.394068,816.394611 338.155821,826.766891 C341.172677,838.089219 342.736562,849.819508 344.283809,861.560974 C345.587047,871.458231 346.585271,881.53432 349.103014,891.018027 C351.559755,900.283781 352.424883,909.946321 354.803984,919.184133 C355.713477,922.716073 356.70061,926.220071 357.549101,929.768777 C360.133392,940.549018 360.122301,951.78193 360.105664,963.003664 C360.089027,972.370012 360.704598,981.607824 362.368306,990.689158 C363.294436,995.729997 359.978113,999.133402 355.097906,998.853976 C348.138064,998.457192 343.030483,994.673768 337.928448,990.504737 C334.817316,987.956375 331.007426,986.307764 327.530279,984.228837 C326.559783,983.647632 325.556013,983.072015 324.746342,982.289623 C323.210186,980.808667 322.672254,979.573606 324.846164,977.332612 C326.227041,975.907541 326.814885,973.001514 326.809339,970.844348 C326.792702,966.848561 326.010759,962.919837 325.683564,958.940815 C325.267637,953.883211 324.85171,948.820018 324.679794,943.728882 C324.563334,940.342243 324.945987,936.894131 324.957078,933.485138 C324.962624,931.640929 324.602154,929.83025 324.496786,927.991629 C324.396964,926.326253 324.297141,924.64411 324.419146,922.967556 C324.56888,920.838333 325.522739,918.664401 323.9644,916.75313 C323.60393,916.306048 323.620567,915.154815 323.914488,914.528901 C325.522739,911.119908 324.618791,908.683317 322.383878,906.269079 C320.453978,904.173386 320.076871,901.272948 320.34861,898.160146 C320.503889,896.394176 320.015868,894.617029 319.766312,892.856647 C318.928913,886.949589 318.102605,881.042531 317.209749,875.146649 C316.549812,870.759666 315.939786,866.35033 315.013655,862.041586 C314.398084,859.185856 313.560685,856.486604 314.520089,853.396156 C314.769645,852.59141 314.475723,851.546358 314.203985,850.719258 C312.384998,845.208984 311.924706,839.43605 311.852612,833.495461 C311.813792,830.287654 311.109489,827.068671 310.255453,824.02852 C308.541835,817.914686 306.556478,811.895858 304.576666,805.888206 C304.277199,804.982867 304.238379,807.067382 303.201335,809.10719" id="Fill-25" sketch:type="MSShapeGroup"></path>
            <path d="M105.874027,400.040907 C102.369151,400.448869 99.3800238,400.616524 96.3964424,401.169787 C87.7229826,402.784867 79.0938884,405.55677 70.3760631,406.735946 C65.0522003,407.451276 59.7006091,410.016403 54.3601093,411.692957 C51.9810081,412.43623 49.5908155,413.039789 46.5850513,413.883654 C50.9162355,429.922687 50.9938752,446.587633 49.6351811,464.71677 C52.9237755,462.486953 55.5247042,461.279834 57.6986149,459.139434 C62.6509164,454.243896 67.2593851,448.588321 72.2560521,443.804554 C77.6741916,438.618414 82.9980544,433.314915 87.8283507,427.044603 C94.1393464,418.840666 100.722081,410.966451 105.874027,400.040907 M51.659358,518.400027 C51.2323399,524.681516 50.8496872,530.253263 50.478126,535.825011 C50.0954734,541.586768 49.7682776,547.354114 49.3246224,553.104694 C49.0251551,557.02783 49.0750663,561.146564 48.0879334,564.812629 C45.6367383,573.916317 45.9916625,583.400023 44.9379813,592.676955 C44.6218769,595.448858 45.4038193,597.566904 47.21726,599.276989 C49.7738233,601.691227 52.6575823,603.021293 55.7964431,602.685982 C62.1407129,602.020949 68.5127111,601.450921 74.6351533,599.014329 C76.4208656,598.304588 78.2065779,597.561316 79.9534704,596.71745 C83.8742735,594.817356 87.7950766,592.928438 91.6659685,590.877454 C94.216986,589.530622 96.5683588,587.306394 99.2081074,586.596653 C101.437475,585.998682 103.256461,584.853037 105.17527,583.578856 C109.26799,580.851661 113.504897,578.443012 117.558797,575.626402 C119.79371,574.067206 121.851161,572.055342 123.836518,570.026711 C125.161938,568.668703 126.110251,566.757431 127.42458,565.377068 C133.818761,558.648499 137.900389,550.511624 137.928118,539.798444 C137.933663,539.071937 137.922572,538.339842 137.978029,537.624512 C139.103804,524.02766 128.805457,509.022502 115.190787,509.85519 C109.822559,510.179324 104.432148,510.296683 99.0861022,510.944951 C88.826575,512.196777 78.2897633,510.598463 68.3518861,515.359876 C67.5643981,515.734306 66.6105393,515.544297 65.7398659,515.706364 C61.1424886,516.566995 56.5451113,517.461157 51.659358,518.400027 M21.3244317,405.467354 C19.6496332,403.276656 18.2465735,401.438036 16.8989707,399.677654 C18.9675132,396.6878 21.568442,395.855111 25.3561486,396.816335 C25.9162633,396.956048 26.5318349,397.134881 26.9643988,397.486957 C30.0977138,400.06885 32.781828,399.034975 35.987237,397.151646 C46.967704,390.70809 58.6136538,385.600189 70.6533476,381.554106 C82.1440181,377.698032 93.9341558,376.407085 106.057035,378.290414 C114.087195,379.536653 121.241135,382.330909 127.119567,388.04237 C131.533937,392.323171 132.753989,397.978746 132.753989,403.774034 C132.753989,408.311907 131.495117,412.637416 129.232475,416.812035 C125.966063,422.825275 123.514868,429.285597 120.559015,435.483258 C119.244687,438.243983 117.392426,440.742049 116.050369,443.491597 C109.356721,457.20022 98.6812668,467.527792 87.7118912,477.626235 C81.4563525,483.387992 75.2229965,489.177692 69.0118232,494.989746 C68.0746016,495.861554 67.2926592,496.901017 66.0393332,498.320499 C67.5311239,498.622279 68.4683456,499.013475 69.3778388,498.963178 C82.4157569,498.225495 95.3704896,499.030241 108.269765,500.958278 C119.815893,502.67954 130.857362,505.904112 140.351584,513.023877 C152.346913,522.015795 159.118201,533.768438 158.225344,549.298916 C158.142159,550.75193 158.330713,552.232886 158.474901,553.691487 C158.824279,557.094892 158.774368,560.414469 157.559862,563.706103 C157.02193,565.175882 156.922107,566.846847 156.833376,568.439574 C156.600457,572.5136 156.572729,576.492621 154.709377,580.398992 C153.151038,583.651506 152.779476,587.457284 151.68143,590.955693 C151.210046,592.453415 150.417012,593.945548 149.440971,595.17502 C143.529265,602.613331 135.987126,607.922419 127.518857,612.013211 C123.570325,613.918894 119.771527,616.154299 115.773085,617.942623 C104.692795,622.899634 93.3962239,627.286617 81.195705,628.465793 C75.4170956,629.024645 70.5978907,626.168914 65.8729625,623.296419 C64.6418192,622.547558 63.4328587,621.765166 62.2793551,620.898946 C61.3754076,620.222736 60.1109902,619.535349 59.8392514,618.602068 C59.3068651,616.802566 57.8594399,616.282835 56.7225734,615.215429 C54.543117,613.170033 52.5633056,610.800503 50.9661467,608.268907 C49.1416146,605.368468 47.8439231,602.132719 46.2578556,599.075803 C46.1136677,598.801965 45.5535529,598.74608 44.6496054,598.360473 C44.6496054,600.053792 44.5996942,601.439744 44.6606968,602.820106 C44.7882477,605.463473 45.1487175,608.112428 45.104352,610.755795 C45.032258,615.271314 43.4406449,616.444901 39.1926461,615.483677 C30.1032595,613.427104 22.8883163,608.414208 16.6494147,601.350327 C20.2485677,598.338119 18.9675132,594.370275 19.1283383,590.8551 C19.4666254,583.522971 19.2115236,576.15731 19.4610797,568.819593 C19.8603694,557.083715 20.3594815,545.353426 21.0360558,533.628725 C21.551805,524.675927 22.4834809,515.745483 23.0824155,506.792685 C23.3097888,503.417223 23.2931517,499.818221 20.9140506,497.1525 C16.3943129,492.083719 17.8805579,485.65134 21.6516274,481.55496 C24.2081906,478.783057 25.2507804,475.871442 25.3561486,472.093607 C25.6057046,463.464943 26.315553,454.847456 26.8812134,446.229968 C27.4302368,437.863964 27.0919496,429.553845 25.7665296,420.584282 C22.6720344,421.858463 19.8770065,422.909103 17.1651639,424.144165 C11.3699174,426.776354 6.16805983,426.563991 0.455998741,423.009696 C6.23460812,415.850811 15.0522558,412.441818 21.3244317,405.467354" id="Fill-27" sketch:type="MSShapeGroup"></path>
            <path d="M582.402445,917.079499 C583.644679,916.995671 584.57081,917.018025 585.447029,916.861547 C595.429271,915.106754 605.58343,914.408189 615.781955,913.866104 C625.037712,913.374314 629.31344,912.575157 638.286367,910.574469 C641.913248,909.769724 643.044569,908.484366 642.767284,905.19832 C642.56764,902.845556 642.329175,900.49838 642.118439,898.151205 C641.857791,895.334594 641.746877,892.501218 641.336496,889.695784 C640.099807,881.262718 638.746659,882.525722 637.437876,874.098244 C637.193866,872.539049 636.777939,870.985442 636.694753,869.420659 C636.190096,859.808416 633.383976,850.419714 631.870003,840.902476 C631.698086,839.818305 631.404165,838.711779 630.938327,837.683493 C629.712729,834.978652 629.213617,832.189984 628.941878,829.345431 C628.83651,828.261259 628.803236,826.992667 628.132208,826.143213 C626.379769,823.918985 626.18567,821.3818 625.314997,818.978739 C624.266861,816.106243 623.063447,813.272867 621.832303,810.450668 C621.649295,810.037118 620.92281,809.780047 620.262873,809.327377 C619.780398,810.394783 619.425474,811.115701 619.120461,811.842208 C614.878008,821.963005 611.999794,832.480587 607.607607,842.562265 C607.291503,843.283183 607.263775,844.087929 607.030856,844.842378 C605.649979,849.363485 604.6573,854.018717 602.755128,858.36658 C600.337207,863.904796 597.963652,869.431836 595.950566,875.109765 C592.939256,883.609894 594.303496,882.26865 591.08145,890.712894 C589.567477,894.697504 587.559937,898.559166 587.077462,902.823202 C586.988731,903.577651 586.667081,904.410339 586.134694,904.997133 C583.805504,907.567849 583.761139,910.842718 582.496721,913.737568 C582.091886,914.659673 582.413536,915.827672 582.402445,917.079499 M643.482679,931.045193 C639.090492,931.285499 635.408153,931.492274 631.720269,931.682284 C628.941878,931.821996 626.157942,931.961709 623.368459,932.056714 C616.86891,932.269077 610.363816,932.464675 603.858721,932.660273 C596.072571,932.889402 588.330788,933.515316 580.605641,934.225057 C579.319041,934.342416 578.015804,934.443009 576.768023,934.705669 C575.076588,935.074511 573.873173,935.912788 573.357424,937.444041 C572.403565,940.283005 571.250061,943.077262 570.307294,945.916226 C566.22012,958.233309 560.824163,970.148019 555.439298,982.051552 C551.418672,990.926111 547.486778,999.817436 543.943082,1008.84847 C543.016952,1011.20683 542.090821,1013.57635 541.070414,1015.90676 C539.78936,1018.84073 536.883418,1020.03668 533.495001,1020.61229 C530.106584,1021.18791 526.70153,1020.46699 523.595944,1019.56165 C520.484812,1018.65631 519.214848,1016.97417 519.386765,1014.03461 C519.691778,1008.65287 521.322211,1003.56174 523.468393,998.576786 C524.034053,997.269074 524.954638,996.017247 525.176466,994.664827 C525.459296,992.910033 527.622115,992.418244 528.110136,990.903757 C528.5427,989.57928 528.886532,988.221271 529.43001,986.930324 C529.662929,986.377062 530.300683,985.957923 530.749884,985.477311 C530.971712,985.237005 531.426459,984.935225 531.365456,984.756393 C530.278501,981.800069 533.079074,980.235286 534.337946,978.089297 C535.280713,976.479805 535.424901,974.540591 536.184661,972.836094 C537.870551,969.069436 539.817088,965.386606 541.480795,961.61436 C543.072408,958.009769 545.190862,954.589599 546.283363,950.817352 C546.505191,950.062903 546.810204,949.314042 547.192856,948.60989 C549.926882,943.513166 551.31885,937.980538 553.803319,932.816752 C555.439298,929.418936 556.182421,925.713751 558.528248,922.539476 C559.154911,921.695611 558.888717,920.399076 559.288007,919.393143 C560.469239,916.447997 561.766931,913.536381 563.053531,910.624766 C564.079484,908.294356 565.227442,905.980712 564.922429,903.398819 C564.822606,902.538188 565.033342,901.940217 565.698825,901.297538 C567.512266,899.548333 569.087242,897.692947 568.90978,895.116642 C568.87096,894.541025 569.347889,893.937466 569.675085,893.378615 C570.401571,892.126788 571.31661,890.947611 571.904453,889.651076 C572.48675,888.376895 573.385152,886.867997 573.019137,885.683232 C572.531116,884.107271 575.109862,883.319291 573.795533,881.832746 C574.655115,880.027657 575.509151,878.216978 576.374279,876.411889 C576.712566,875.69097 577.278227,874.997995 577.378049,874.254723 C577.938164,870.013041 580.200806,866.240795 581.526226,862.222654 C582.147343,860.328148 583.877598,858.612474 583.001379,856.405012 C584.609629,854.868171 585.081013,852.861894 585.885138,851.006508 C587.471206,847.35162 588.935268,843.657613 590.410422,839.963606 C591.4031,837.476718 593.305272,835.258078 593.299726,832.474998 C595.346086,830.820798 594.314588,828.702752 594.175945,826.556763 C596.006023,825.467003 596.754691,823.846334 597.486722,822.01889 C598.717866,818.956385 600.531306,816.089478 600.11538,812.669308 C600.07656,812.384294 600.431484,812.065748 600.39821,811.780734 C600.143108,809.69063 603.365154,808.835588 602.871588,806.8349 C602.400204,804.934806 603.315243,803.386788 604.019546,801.861123 C605.333874,799.044513 605.882898,796.216725 605.350511,793.19334 C605.272872,792.757436 605.156412,792.187407 605.400423,791.87445 C607.674156,788.912539 607.907075,785.391775 608.772202,782.072198 C609.55969,779.048813 609.787064,775.90248 610.291722,772.627611 C613.663501,770.448091 617.30702,769.604226 621.9654,770.107192 C627.677461,770.721928 632.524394,778.277598 630.067653,782.59193 C628.481586,785.369421 627.339174,788.336922 625.986025,791.254126 C627.111801,792.220938 627.993565,793.025684 628.936333,793.785722 C635.324968,798.938331 640.144173,804.923629 642.978021,811.987509 C643.327399,812.84814 643.959608,813.652886 644.580725,814.418512 C645.523493,815.580923 646.832276,816.614798 646.194521,818.218701 C646.139064,818.352826 646.14461,818.59872 646.244432,818.665782 C649.00064,820.509992 648.806541,823.477492 650.276149,825.77996 C652.65525,829.513086 653.548107,833.553581 654.452054,837.571722 C656.370863,846.116559 658.178758,854.678161 659.753734,863.262117 C660.812961,869.023874 661.44517,874.819162 663.253065,880.50268 C663.824271,882.296593 663.408344,884.274927 663.718903,886.14149 C664.606213,891.444989 665.654349,896.726134 666.597116,902.024044 C667.345784,906.237783 668.105544,910.457111 668.71557,914.682027 C668.9984,916.626829 669.608426,918.247498 671.40523,919.711688 C673.468226,921.399419 673.423861,922.03651 671.560509,924.199264 C670.407005,925.540508 669.952259,926.853808 670.04099,928.508008 C670.651016,939.679446 670.850661,950.890003 673.146576,961.949671 C674.666096,969.265034 675.974878,976.585987 677.111745,983.929293 C677.738408,987.992142 678.121061,992.077345 678.642356,996.15696 C679.141468,1000.06892 676.529448,1002.13108 672.065167,1001.24251 C665.288333,999.884498 658.888606,997.816748 653.320733,994.027736 C651.889945,993.055335 649.948953,992.647373 648.401706,991.775565 C646.854458,990.89258 645.506856,989.758112 644.053885,988.718649 C643.85424,987.092391 643.660141,985.55555 643.482679,984.108125 C643.676778,983.895762 643.759963,983.711341 643.887514,983.683398 C644.957832,983.493389 646.039242,983.325733 647.159471,983.146901 C648.451617,981.252395 648.141058,979.201411 647.908139,977.17278 C647.253748,971.522794 646.521717,965.883984 645.906145,960.233997 C645.273937,954.427532 644.708276,948.621067 644.186981,942.809013 C643.959608,940.299771 643.926334,937.779351 643.787691,935.26452 C643.721143,934.029459 643.610229,932.799986 643.482679,931.045193" id="Fill-29" sketch:type="MSShapeGroup"></path>
            <path d="M834.040364,962.140239 C835.376875,962.000526 836.774389,962.101119 838.016624,962.620851 C842.480905,964.476237 845.985781,967.756695 849.66812,970.757726 C852.063858,972.713706 851.23755,976.055637 852.585153,978.436343 C849.596026,983.398943 845.342481,985.70141 840.240446,986.288204 C832.764855,987.148835 825.244899,988.272126 817.752671,988.233007 C799.302159,988.143591 782.515355,993.642687 766.543766,1002.37194 C762.207036,1004.74147 757.764939,1006.94335 753.572397,1009.5476 C749.413129,1012.12949 745.508963,1015.11934 740.861674,1018.37745 C737.012965,1017.98066 732.509864,1016.53883 728.239683,1014.73374 C724.557344,1013.18013 721.801136,1010.21263 719.483038,1006.94335 C718.024521,1004.89236 716.127895,1003.15434 714.419822,1001.28218 C714.070444,1000.90217 713.493692,1000.67304 713.266319,1000.24272 C709.861265,993.82152 704.265663,988.78627 701.847742,981.722389 C701.14344,979.676993 700.611053,977.894257 701.625915,975.731503 C702.247032,974.418202 702.413403,972.674586 702.213758,971.204807 C699.707106,952.790656 701.842197,934.616812 705.219522,916.565914 C707.80936,902.706402 710.565568,888.846889 714.07599,875.205329 C715.467958,869.806825 715.76188,864.2239 717.669597,858.875693 C719.422035,853.957802 721.163382,849.028733 721.834411,843.848181 C723.481481,831.089606 726.110138,818.420447 726.038044,805.449508 C726.021407,802.05728 725.993678,798.56446 726.720164,795.284002 C727.945761,789.706666 726.825532,784.330517 725.999224,778.937601 C725.749668,777.311344 724.512979,775.623613 723.292927,774.416494 C721.834411,772.969069 719.871236,772.06373 718.190892,770.828669 C714.874569,768.403254 714.846841,768.146183 716.665827,762.680617 C725.472383,760.18814 733.87965,761.417613 741.965267,765.894012 C748.353902,769.431541 746.873203,769.079464 751.404032,775.120647 C756.567069,782.016872 752.235885,794.401017 752.657358,802.342294 C753.051102,809.719132 752.069514,821.79032 751.39294,829.150392 C750.566632,838.14231 749.634956,847.134227 748.043343,855.997609 C745.403595,870.656279 741.643617,885.108174 738.554667,899.694193 C734.107023,920.667883 730.402502,941.781286 727.513197,963.034401 C726.736801,967.315202 728.361688,972.903715 730.030941,977.609243 C731.711285,982.325948 736.585947,985.053143 741.438426,983.946617 C752.424439,981.45414 767.29798,979.83906 774.585017,978.475463 C783.513579,976.798909 796.762233,967.70081 805.768434,965.258629 C806.273092,965.124505 806.761113,965.046266 807.282408,964.990381 L834.040364,962.140239 Z" id="Fill-31" sketch:type="MSShapeGroup"></path>
        </g>
    </g>
</svg>